<svg xmlns="http://www.w3.org/2000/svg" width="36" height="36" viewBox="0 0 36 36" fill="none">
    <rect width="36" height="36" rx="12" fill="#F6F6F6" />
    <path d="M18.4159 11.1279C15.7679 11.1279 13.6159 13.2799 13.6159 15.9279V18.2399C13.6159 18.7279 13.4079 19.4719 13.1599 19.8879L12.2399 21.4159C11.6719 22.3599 12.0639 23.4079 13.1039 23.7599C16.5519 24.9119 20.2719 24.9119 23.7199 23.7599C24.6879 23.4399 25.1119 22.2959 24.5839 21.4159L23.6639 19.8879C23.4239 19.4719 23.2159 18.7279 23.2159 18.2399V15.9279C23.2159 13.2879 21.0559 11.1279 18.4159 11.1279Z" stroke="#292D32" stroke-width="1.2" stroke-miterlimit="10" stroke-linecap="round" />
    <path d="M19.8958 11.3601C19.6478 11.2881 19.3918 11.2321 19.1278 11.2001C18.3598 11.1041 17.6238 11.1601 16.9358 11.3601C17.1678 10.7681 17.7438 10.3521 18.4158 10.3521C19.0878 10.3521 19.6638 10.7681 19.8958 11.3601Z" stroke="#292D32" stroke-width="1.2" stroke-miterlimit="10" stroke-linecap="round" stroke-linejoin="round" />
    <path d="M20.8159 24.0481C20.8159 25.3681 19.7359 26.4481 18.4159 26.4481C17.7599 26.4481 17.1519 26.1761 16.7199 25.7441C16.2879 25.3121 16.0159 24.7041 16.0159 24.0481" stroke="#292D32" stroke-width="1.2" stroke-miterlimit="10" />
</svg>