<svg xmlns="http://www.w3.org/2000/svg" width="18" height="18" viewBox="0 0 18 18" fill="none">
    <path d="M13.875 14.625H10.875" stroke="#5DB276" stroke-width="1.5" stroke-linecap="round" stroke-linejoin="round" />
    <path d="M12.375 16.125V13.125" stroke="#5DB276" stroke-width="1.5" stroke-linecap="round" stroke-linejoin="round" />
    <path d="M9.11995 8.1525C9.04495 8.145 8.95495 8.145 8.87245 8.1525C7.08745 8.0925 5.66995 6.63 5.66995 4.83C5.66245 2.9925 7.15495 1.5 8.99245 1.5C10.83 1.5 12.3225 2.9925 12.3225 4.83C12.3225 6.63 10.8974 8.0925 9.11995 8.1525Z" stroke="#5DB276" stroke-width="1.5" stroke-linecap="round" stroke-linejoin="round" />
    <path d="M8.99277 16.3575C7.62777 16.3575 6.27027 16.0125 5.23527 15.3225C3.42027 14.1075 3.42027 12.1275 5.23527 10.92C7.29777 9.54001 10.6803 9.54001 12.7428 10.92" stroke="#5DB276" stroke-width="1.5" stroke-linecap="round" stroke-linejoin="round" />
</svg>