<svg width="107" height="40" viewBox="0 0 107 40" fill="none" xmlns="http://www.w3.org/2000/svg">
<circle cx="20" cy="20" r="20" fill="url(#paint0_linear_145_1614)"/>
<path d="M20.92 10.2598L27.43 13.7698C28.19 14.1798 28.19 15.3498 27.43 15.7598L20.92 19.2698C20.34 19.5798 19.66 19.5798 19.08 19.2698L12.57 15.7598C11.81 15.3498 11.81 14.1798 12.57 13.7698L19.08 10.2598C19.66 9.94984 20.34 9.94984 20.92 10.2598Z" stroke="white" stroke-width="1.5" stroke-linecap="round" stroke-linejoin="round"/>
<path d="M11.61 18.1299L17.66 21.1599C18.41 21.5399 18.89 22.3099 18.89 23.1499V28.8699C18.89 29.6999 18.02 30.2299 17.28 29.8599L11.23 26.8299C10.48 26.4499 10 25.6799 10 24.8399V19.1199C10 18.2899 10.87 17.7599 11.61 18.1299Z" stroke="white" stroke-width="1.5" stroke-linecap="round" stroke-linejoin="round"/>
<path d="M28.39 18.1299L22.34 21.1599C21.59 21.5399 21.11 22.3099 21.11 23.1499V28.8699C21.11 29.6999 21.98 30.2299 22.72 29.8599L28.77 26.8299C29.52 26.4499 30 25.6799 30 24.8399V19.1199C30 18.2899 29.13 17.7599 28.39 18.1299Z" stroke="white" stroke-width="1.5" stroke-linecap="round" stroke-linejoin="round"/>
<path d="M51.2952 31.27C50.7752 31.27 50.3852 31.18 50.1252 31C49.8652 30.82 49.6952 30.58 49.6152 30.28C49.5552 29.98 49.5252 29.65 49.5252 29.29V12.25C49.5252 11.89 49.5652 11.57 49.6452 11.29C49.7252 10.99 49.8852 10.75 50.1252 10.57C50.3852 10.39 50.7852 10.3 51.3252 10.3H59.2452C60.4052 10.3 61.4252 10.57 62.3052 11.11C63.2052 11.65 63.9052 12.37 64.4052 13.27C64.9052 14.15 65.1552 15.12 65.1552 16.18C65.1552 16.66 65.0952 17.14 64.9752 17.62C64.8752 18.08 64.7052 18.51 64.4652 18.91C64.2452 19.31 63.9652 19.67 63.6252 19.99C64.0852 20.35 64.4852 20.79 64.8252 21.31C65.1652 21.83 65.4152 22.4 65.5752 23.02C65.7552 23.62 65.8452 24.25 65.8452 24.91C65.8252 25.81 65.6552 26.65 65.3352 27.43C65.0152 28.19 64.5652 28.86 63.9852 29.44C63.4252 30.02 62.7652 30.47 62.0052 30.79C61.2452 31.11 60.4252 31.27 59.5452 31.27H51.2952ZM53.1552 27.73H59.2452C59.8252 27.73 60.3352 27.62 60.7752 27.4C61.2352 27.18 61.5952 26.84 61.8552 26.38C62.1152 25.92 62.2452 25.32 62.2452 24.58C62.2452 24 62.1652 23.54 62.0052 23.2C61.8652 22.84 61.6652 22.56 61.4052 22.36C61.1652 22.16 60.8852 22.02 60.5652 21.94C60.2652 21.86 59.9652 21.82 59.6652 21.82C59.3652 21.8 59.0852 21.79 58.8252 21.79H57.4452C56.9252 21.79 56.5452 21.67 56.3052 21.43C56.0652 21.17 55.9452 20.75 55.9452 20.17C55.9452 19.63 56.0752 19.25 56.3352 19.03C56.5952 18.79 56.9952 18.67 57.5352 18.67H58.8852C59.1452 18.67 59.4252 18.66 59.7252 18.64C60.0452 18.62 60.3452 18.55 60.6252 18.43C60.9052 18.29 61.1352 18.07 61.3152 17.77C61.4952 17.47 61.5852 17.03 61.5852 16.45C61.5852 15.55 61.3452 14.9 60.8652 14.5C60.4052 14.08 59.6052 13.87 58.4652 13.87H53.1552V27.73ZM78.7424 31.42C77.7624 31.42 76.7724 31.28 75.7724 31C74.7724 30.7 73.8124 30.26 72.8924 29.68C71.9724 29.08 71.1524 28.35 70.4324 27.49C69.7324 26.61 69.1724 25.6 68.7524 24.46C68.3324 23.3 68.1224 22.02 68.1224 20.62C68.1224 19.24 68.3324 18 68.7524 16.9C69.1724 15.78 69.7324 14.8 70.4324 13.96C71.1524 13.12 71.9624 12.42 72.8624 11.86C73.7824 11.3 74.7424 10.88 75.7424 10.6C76.7624 10.3 77.7724 10.14 78.7724 10.12C79.7924 10.12 80.6724 10.23 81.4124 10.45C82.1524 10.67 82.7524 10.91 83.2124 11.17C83.6724 11.41 83.9824 11.58 84.1424 11.68C84.4624 11.88 84.7624 12.11 85.0424 12.37C85.3424 12.61 85.5024 12.91 85.5224 13.27C85.5424 13.51 85.5124 13.73 85.4324 13.93C85.3524 14.11 85.2424 14.3 85.1024 14.5C84.8624 14.84 84.6224 15.09 84.3824 15.25C84.1424 15.41 83.9024 15.49 83.6624 15.49C83.4424 15.49 83.2324 15.43 83.0324 15.31C82.8524 15.19 82.6224 15.04 82.3424 14.86C82.2224 14.78 82.0024 14.66 81.6824 14.5C81.3824 14.32 80.9724 14.16 80.4524 14.02C79.9524 13.88 79.3424 13.81 78.6224 13.81C77.7624 13.81 76.9224 13.96 76.1024 14.26C75.2824 14.56 74.5424 15.01 73.8824 15.61C73.2424 16.19 72.7324 16.92 72.3524 17.8C71.9724 18.66 71.7824 19.65 71.7824 20.77C71.7824 21.89 71.9724 22.89 72.3524 23.77C72.7324 24.63 73.2424 25.36 73.8824 25.96C74.5424 26.54 75.2824 26.98 76.1024 27.28C76.9224 27.58 77.7624 27.73 78.6224 27.73C79.3024 27.73 79.8824 27.67 80.3624 27.55C80.8624 27.41 81.2824 27.25 81.6224 27.07C81.9824 26.87 82.2524 26.72 82.4324 26.62C82.6524 26.48 82.8624 26.35 83.0624 26.23C83.2624 26.11 83.4724 26.05 83.6924 26.05C83.9324 26.05 84.1624 26.13 84.3824 26.29C84.6224 26.45 84.8524 26.71 85.0724 27.07C85.2124 27.29 85.3224 27.5 85.4024 27.7C85.4824 27.9 85.5124 28.11 85.4924 28.33C85.4724 28.69 85.3124 29 85.0124 29.26C84.7324 29.5 84.4324 29.71 84.1124 29.89C83.9524 29.99 83.6424 30.17 83.1824 30.43C82.7424 30.67 82.1524 30.89 81.4124 31.09C80.6724 31.31 79.7824 31.42 78.7424 31.42ZM103.321 31.27C102.761 31.27 102.351 31.19 102.091 31.03C101.831 30.87 101.671 30.65 101.611 30.37C101.551 30.07 101.521 29.76 101.521 29.44V12.13C101.521 11.81 101.551 11.51 101.611 11.23C101.691 10.95 101.851 10.73 102.091 10.57C102.351 10.41 102.771 10.33 103.351 10.33C103.911 10.33 104.311 10.41 104.551 10.57C104.811 10.73 104.971 10.95 105.031 11.23C105.111 11.51 105.151 11.82 105.151 12.16V29.47C105.151 29.79 105.111 30.09 105.031 30.37C104.971 30.65 104.811 30.87 104.551 31.03C104.291 31.19 103.881 31.27 103.321 31.27ZM90.1806 31.27C89.6206 31.27 89.2106 31.19 88.9506 31.03C88.7106 30.87 88.5506 30.65 88.4706 30.37C88.4106 30.07 88.3806 29.76 88.3806 29.44V12.13C88.3806 11.81 88.4106 11.51 88.4706 11.23C88.5506 10.95 88.7206 10.73 88.9806 10.57C89.2406 10.41 89.6506 10.33 90.2106 10.33C90.7906 10.33 91.2006 10.41 91.4406 10.57C91.7006 10.73 91.8606 10.95 91.9206 11.23C91.9806 11.51 92.0106 11.82 92.0106 12.16V29.47C92.0106 29.79 91.9706 30.09 91.8906 30.37C91.8306 30.65 91.6706 30.87 91.4106 31.03C91.1706 31.19 90.7606 31.27 90.1806 31.27ZM91.0506 22.24V19H102.001L101.971 22.24H91.0506Z" fill="#292D32"/>
<defs>
<linearGradient id="paint0_linear_145_1614" x1="8.94737" y1="7.36842" x2="36.3158" y2="58.9474" gradientUnits="userSpaceOnUse">
<stop stop-color="#5DB276"/>
<stop offset="1" stop-color="#5932EA"/>
<stop offset="1" stop-color="#5932EA" stop-opacity="0"/>
</linearGradient>
</defs>
</svg>
