<svg width="1167" height="238" viewBox="0 0 1167 238" fill="none" xmlns="http://www.w3.org/2000/svg">
    <mask id="mask0_843_5129" style="mask-type:alpha" maskUnits="userSpaceOnUse" x="0" y="0" width="1167" height="238">
        <rect width="1167" height="238" fill="#F0F9F6"/>
    </mask>
    <g mask="url(#mask0_843_5129)">
        <mask id="mask1_843_5129" style="mask-type:alpha" maskUnits="userSpaceOnUse" x="-156" y="-834" width="2083" height="1711">
            <rect width="1798.27" height="1090.18" transform="matrix(0.919351 0.393438 0.393438 -0.919351 -156 168.918)" fill="#D9D9D9"/>
        </mask>
        <g mask="url(#mask1_843_5129)">
            <g opacity="0.5">
                <path opacity="0.01" d="M-73.2382 -810.332C-37.6289 -249.336 231.16 717.479 1021.44 96.7704C1811.73 -523.938 1968.68 -74.0134 1948.38 228.537" stroke="#5DB276"/>
                <path opacity="0.12" d="M-91.7486 -776.044C-50.8876 -229.323 225.435 714.928 1003.84 118.167C1782.24 -478.595 1942.47 -38.8576 1925.29 255.606" stroke="#5DB276"/>
                <path opacity="0.25" d="M-110.258 -741.751C-64.1454 -209.306 219.71 712.381 986.233 139.567C1752.76 -433.248 1916.26 -3.69796 1902.19 282.679" stroke="#5DB276"/>
                <path opacity="0.3" d="M-128.77 -707.462C-77.4054 -189.292 213.984 709.832 968.627 160.964C1723.27 -387.903 1890.05 31.4589 1879.1 309.749" stroke="#5DB276"/>
                <path opacity="0.45" d="M-147.278 -673.172C-90.6622 -169.277 208.26 707.282 951.023 182.361C1693.79 -342.559 1863.83 66.6156 1856.01 336.818" stroke="#5DB276"/>
                <path opacity="0.55" d="M-165.789 -638.876C-103.922 -149.256 202.534 704.74 933.417 203.766C1664.3 -297.209 1837.62 101.779 1832.92 363.895" stroke="#5DB276"/>
                <path opacity="0.65" d="M-184.3 -604.587C-117.181 -129.243 196.808 702.189 915.811 225.162C1634.81 -251.866 1811.41 136.935 1809.83 390.964" stroke="#5DB276"/>
                <path opacity="0.78" d="M-202.809 -570.297C-130.439 -109.228 191.083 699.641 898.206 246.56C1605.33 -206.52 1785.2 172.093 1786.74 418.034" stroke="#5DB276"/>
                <path opacity="0.89" d="M-221.319 -536.007C-143.696 -89.2133 185.359 697.091 880.602 267.957C1575.85 -161.176 1758.98 207.25 1763.65 445.104" stroke="#5DB276"/>
                <path d="M-239.83 -501.717C-156.956 -69.198 179.632 694.543 862.995 289.356C1546.36 -115.831 1732.77 242.408 1740.55 472.175" stroke="#5DB276"/>
            </g>
        </g>
        <mask id="mask2_843_5129" style="mask-type:alpha" maskUnits="userSpaceOnUse" x="-155" y="-833" width="2083" height="1710">
            <rect width="1798.27" height="1090.18" transform="matrix(0.919351 0.393438 0.393438 -0.919351 -154.851 169.408)" fill="#D9D9D9"/>
        </mask>
        <g mask="url(#mask2_843_5129)">
            <g opacity="0.5">
                <path opacity="0.01" d="M-72.0908 -809.842C-36.4814 -248.846 232.308 717.969 1022.59 97.2607C1812.87 -523.447 1969.83 -73.5232 1949.52 229.027" stroke="#5DB276"/>
                <path opacity="0.12" d="M-90.5992 -775.554C-49.7382 -228.833 226.584 715.418 1004.99 118.657C1783.39 -478.104 1943.62 -38.3673 1926.44 256.096" stroke="#5DB276"/>
                <path opacity="0.25" d="M-109.109 -741.262C-62.996 -208.817 220.86 712.871 987.383 140.056C1753.91 -432.758 1917.41 -3.20871 1903.34 283.168" stroke="#5DB276"/>
                <path opacity="0.3" d="M-127.62 -706.972C-76.256 -188.801 215.133 710.322 969.776 161.454C1724.42 -387.413 1891.19 31.9492 1880.25 310.239" stroke="#5DB276"/>
                <path opacity="0.45" d="M-146.129 -672.682C-89.5128 -168.787 209.409 707.773 952.172 182.852C1694.94 -342.069 1864.98 67.1058 1857.16 337.308" stroke="#5DB276"/>
                <path opacity="0.55" d="M-164.64 -638.386C-102.773 -148.766 203.683 705.23 934.566 204.256C1665.45 -296.718 1838.77 102.269 1834.07 364.385" stroke="#5DB276"/>
                <path opacity="0.65" d="M-183.151 -604.098C-116.032 -128.754 197.956 702.679 916.959 225.651C1635.96 -251.376 1812.56 137.424 1810.98 391.453" stroke="#5DB276"/>
                <path opacity="0.78" d="M-201.661 -569.807C-129.29 -108.737 192.232 700.131 899.355 247.05C1606.48 -206.03 1786.34 172.583 1787.89 418.525" stroke="#5DB276"/>
                <path opacity="0.89" d="M-220.169 -535.517C-142.547 -88.7231 186.508 697.581 881.751 268.448C1576.99 -160.686 1760.13 207.74 1764.8 445.594" stroke="#5DB276"/>
                <path d="M-238.681 -501.226C-155.807 -68.7078 180.782 695.033 864.145 289.846C1547.51 -115.341 1733.92 242.898 1741.7 472.665" stroke="#5DB276"/>
            </g>
        </g>
    </g>
</svg>
