<svg width="132" height="132" viewBox="0 0 132 132" fill="none" xmlns="http://www.w3.org/2000/svg">
    <path fill-rule="evenodd" clip-rule="evenodd"
          d="M36.7646 104.429C36.0904 103.751 35.1392 102.844 34.4048 102.058C33.8032 101.414 32.2746 99.6746 31.7079 99.0097C30.686 97.8106 30.6573 97.6518 29.6852 96.3001C25.2432 90.1238 21.8262 82.7054 20.9201 74.286C20.583 72.5926 20.7142 73.2468 20.583 71.9152C20.353 69.5811 20.1162 65.6265 20.2457 63.4483C20.4696 59.6835 21.1739 56.1664 21.9313 52.9489C22.699 49.6878 23.6169 47.1916 24.9653 44.1435C31.3701 38.7252 59.4253 35.5962 67.1047 33.1503C77.1982 29.9355 92.217 28.6745 100.191 33.1503C108.943 38.0631 115.674 48.738 114.301 60.0608C112.979 70.9569 108.079 86.3028 100.191 95.2838C91.9467 104.67 76.9444 108.016 65.7564 110.863C52.609 112.896 44.3512 112.051 36.7646 104.429Z"
          fill="#E3F7FF" fill-opacity="0.6"/>
    <path d="M49.2773 113.206C56.9781 113.819 65.5828 114.249 72.836 114.249C80.124 114.249 88.5021 113.776 95.9037 113.113C98.328 111.799 103.176 109.035 103.176 108.493V107.717C97.6111 107.354 90.586 107.137 82.9494 107.137C72.2523 107.137 55.0671 107.645 42.8328 108.371C42.8328 108.524 42.9002 108.967 43.1699 109.509C43.4396 110.051 47.3538 112.199 49.2773 113.206Z"
          fill="#CDE2FF"/>
    <path d="M110.93 99.0088C105.536 96.5703 110.256 93.7028 113.29 92.5738L114.301 91.5578C115.11 88.5774 118.122 88.7363 119.358 89.5266C118.122 91.7845 115.582 96.3004 115.313 96.3003L114.975 94.6059C113.087 98.3992 111.492 99.1217 110.93 99.0088Z"
          fill="#9CD39A"/>
    <path d="M76.8812 104.766C77.6903 103.141 76.5441 102.734 75.8699 102.734L74.8585 106.798L72.1616 109.508C70.5435 110.05 70.8131 110.411 71.1503 110.524H74.5214C75.8699 110.524 76.207 110.072 76.207 109.846L76.8812 104.766Z"
          fill="#D54B41"/>
    <path d="M47.5523 107.137C47.2826 106.866 47.2152 106.347 47.2152 106.121L41.4843 109.169L42.8327 109.846L47.2152 108.153C47.44 107.927 47.822 107.408 47.5523 107.137Z"
          fill="#D54B41"/>
    <path fill-rule="evenodd" clip-rule="evenodd"
          d="M110.93 101.734V101.718H101.828V103.073H109.614C110.104 102.585 110.549 102.131 110.93 101.734ZM109.273 103.412H101.828V104.089H108.579C108.817 103.859 109.049 103.633 109.273 103.412ZM108.227 104.428H101.828V109.169L102.671 109.138C104.334 108.008 106.422 106.154 108.227 104.428Z"
          fill="#75A1DE"/>
    <path d="M40.1358 108.153C40.81 107.476 44.8554 101.718 44.8554 101.379C46.3162 100.363 48.9682 98.8732 47.8894 101.041C46.8106 103.208 46.9904 105.331 47.2152 106.121L41.4842 109.169C40.81 109.056 39.5964 108.695 40.1358 108.153Z"
          fill="#FFBE9E"/>
    <path d="M75.1957 102.395L72.4987 98.67L69.8018 100.363L72.1616 103.073C74.0495 104.157 72.9482 107.814 72.1616 109.508C75.1282 110.321 75.8699 105.331 75.8699 102.734C75.6002 102.734 75.308 102.508 75.1957 102.395Z"
          fill="#FFBE9E"/>
    <path d="M71.1504 88.2735C70.8133 89.6282 70.1391 92.4054 70.1391 92.6764L66.0937 110.627H67.105L72.836 88.6124C74.7238 89.4252 79.9154 89.4027 82.2752 89.2898L87.332 110.627H88.3433L83.9608 88.9511C86.388 88.4092 87.4443 86.4674 87.6691 85.5643C88.4782 84.7514 87.7815 78.6778 87.332 75.7425C86.9949 74.7265 88.0062 71.6782 89.0176 67.9527C89.8266 64.9723 88.4557 65.3561 87.6691 65.9206L85.6464 73.7103C84.9722 73.5974 84.0282 74.5909 85.6464 79.4679C87.2645 84.3449 85.4217 86.4673 84.2979 86.9189C82.2752 87.3704 77.6905 88.0026 75.5329 86.9188C73.3754 85.835 70.1391 86.2414 68.7906 86.5801C66.4308 86.5801 67.4421 89.2895 68.4535 88.6122C69.2626 88.0703 70.5885 88.1606 71.1504 88.2735Z"
          fill="#2E5C9A"/>
    <path d="M55.643 81.5001C55.9127 80.9582 56.6544 80.3711 56.9915 80.1453L72.8359 78.7906L73.173 86.2416C68.7905 86.2416 59.8907 86.8512 59.3513 89.2897C58.8119 91.7283 51.71 99.3373 48.2265 102.837C47.1027 102.724 44.5182 102.192 44.5182 101.379C44.5182 100.363 55.3059 82.1774 55.643 81.5001Z"
          fill="#6891C9"/>
    <path d="M74.5215 76.0811C71.0155 75.8101 62.4978 77.5487 58.6771 78.4518C57.5534 78.7906 55.7105 80.8227 57.3286 86.2416C58.9468 91.6605 66.4308 98.8958 70.1391 101.718C71.038 101.154 73.1057 99.4502 72.836 98.0955C72.4988 96.4021 67.7792 87.935 65.4194 86.2416C63.5316 84.8869 64.4081 84.774 65.0823 84.8869C68.4535 85.79 76.342 87.5963 80.9267 87.5963C85.5115 87.5963 85.7587 83.758 85.3092 81.8388C83.1742 80.0324 78.0275 76.352 74.5215 76.0811Z"
          fill="#74A0DD"/>
    <path d="M68.7906 73.9472H20.8144L21.0985 75.6406H57.3287L62.0483 110.525H63.0597L60.0256 75.6406H68.1164C68.6558 75.6406 68.7906 75.4149 68.7906 75.302V73.9472Z"
          fill="#2E5C9A"/>
    <path d="M45.8667 62.5341C44.7879 61.7213 44.2935 62.647 44.1811 63.2115L49.5749 74.0493L62.0482 74.3878C63.127 73.575 62.4977 72.6944 62.0482 72.3557H50.5863L45.8667 62.5341Z"
          fill="#739FDC"/>
    <path d="M57.6658 69.6464C58.4749 68.8336 61.1493 69.7593 62.3854 70.3238L65.4194 71.0011L65.0823 72.6944L61.7112 72.017C61.5988 72.017 61.1718 72.0848 60.3627 72.3557C59.5536 72.6266 58.0029 71.5654 57.3287 71.001C55.9802 71.6783 53.3507 72.8976 53.6204 72.3557C53.8901 71.8138 56.4297 70.3237 57.6658 69.6464Z"
          fill="#FFBE9E"/>
    <path d="M75.8701 61.1793C78.567 57.1152 82.6124 56.5507 84.298 56.7765C87.6691 63.2116 86.6578 65.2434 85.9835 70.3236C85.4442 74.3878 85.5341 76.9843 85.6464 77.7746C86.9949 83.1935 84.6351 82.7419 83.2866 81.8388C80.9268 80.7098 75.8701 78.0455 74.5216 76.4199C73.1731 74.7942 74.1845 71.2268 74.8587 69.6462C74.0721 68.5173 73.1732 65.2435 75.8701 61.1793Z"
          fill="#F47265"/>
    <path d="M80.5896 77.7746C79.5108 76.6908 76.2071 76.6457 74.5215 76.4199C74.3437 76.395 73.8856 75.0548 73.8473 74.7265L77.5556 70.6623C78.904 66.8239 82.0055 59.689 83.6236 61.8566C85.2418 64.0241 83.6236 68.1786 82.6123 69.9849C81.8257 71.1139 80.5222 74.1169 81.6009 77.0972C82.9494 80.8227 80.9267 78.1133 80.5896 77.7746Z"
          fill="#D4473D"/>
    <path d="M75.1958 52.3735C76.8139 55.0829 78.7917 53.5024 79.5783 52.3735C80.1177 52.9154 80.0278 53.954 79.9154 54.4056L82.9494 53.0509L80.9267 49.3254L78.2298 46.9546L75.1958 44.9225L74.1844 48.648C73.8473 48.7609 73.5776 49.664 75.1958 52.3735Z"
          fill="#FFBE9E"/>
    <path d="M79.9154 54.4056V55.4216L83.6237 54.7443L82.9494 52.3735L79.9154 54.4056Z" fill="#FFBE9E"/>
    <path fill-rule="evenodd" clip-rule="evenodd"
          d="M75.5328 49.664V47.2932L76.2071 49.664C76.6565 49.664 77.6229 49.5962 77.8926 49.3253C78.3421 51.4703 80.3199 55.1506 84.635 52.7121L85.3092 53.3895C84.2978 55.0829 84.0281 59.1471 91.0401 61.8565C92.2762 62.421 93.8719 64.8369 90.3659 69.9849C90.1412 71.1138 90.2311 73.6426 92.3886 74.7264C92.501 73.3717 93.8719 70.5268 98.4567 69.9849C101.386 69.6386 102.453 67.3382 102.695 65.0449C103.37 64.3627 103.286 62.8091 103.215 61.5152C103.195 61.1479 103.176 60.8014 103.176 60.5018C103.176 59.4181 101.828 57.5666 101.154 56.7763C100.479 56.2119 98.7938 55.0829 97.4454 55.0829C96.0969 55.083 94.1866 53.7282 93.4 53.0508C90.7031 50.8833 87.1072 51.9219 85.6463 52.7121L84.9721 52.0348C85.4216 51.2445 85.916 48.5802 84.2979 44.2451C82.6797 39.9099 78.005 41.5356 75.8699 42.8903C72.3639 42.8903 71.9369 47.4061 72.1617 49.664C72.7011 50.2059 74.6339 49.8898 75.5328 49.664ZM102.502 61.5178C102.165 59.3728 100.21 55.1506 95.0855 55.4216C94.4113 55.4216 92.928 55.0151 92.3886 53.3895C91.7144 52.825 89.894 51.8315 88.0061 52.3734C88.9051 52.0347 91.1076 51.6961 92.7257 53.0508C94.3439 54.4055 95.6474 54.97 96.0969 55.0829C97.5577 55.3087 100.682 56.1667 101.491 57.7923C102.327 59.1471 103.75 62.1952 102.746 63.5499C102.721 62.7936 102.626 62.0895 102.502 61.5178Z"
          fill="#303D60"/>
    <path d="M95.0855 55.4216C100.21 55.1506 102.165 59.3728 102.502 61.5178C102.626 62.0895 102.721 62.7936 102.746 63.5499C103.75 62.1952 102.327 59.1471 101.491 57.7923C100.682 56.1667 97.5577 55.3087 96.0969 55.0829C95.6474 54.97 94.3439 54.4055 92.7257 53.0508C91.1076 51.6961 88.9051 52.0347 88.0061 52.3734C89.894 51.8315 91.7144 52.825 92.3886 53.3895C92.928 55.0151 94.4113 55.4216 95.0855 55.4216Z"
          fill="#303D60"/>
    <path d="M84.2979 58.8085C82.1404 55.2862 79.5783 58.4698 78.5669 60.5019C76.9937 63.7758 73.6451 70.3913 72.836 70.6623C72.0269 70.9332 66.8803 70.5494 64.4081 70.3236L64.4081 72.6944C64.1384 73.7782 65.6442 73.5975 66.4308 73.3717C68.858 75.8102 75.5329 75.0651 78.5669 74.3878C81.3762 70.6623 86.4554 62.3308 84.2979 58.8085Z"
          fill="#F2E5DD"/>
    <path d="M83.9608 53.7282L77.8927 55.7603V57.7924L75.87 61.1792C78.5669 57.386 82.6123 56.6634 84.2979 56.7763L83.9608 53.7282Z"
          fill="#F2E5DD"/>
    <path d="M107.568 91.219C109.455 91.219 107.906 87.8346 106.895 86.1406C107.573 86.2642 108.976 87.5139 109.244 91.5577C109.514 95.6218 107.334 100.702 106.21 102.734H107.559C107.829 102.734 109.251 96.6379 109.928 93.5898C110.737 87.358 108.018 85.5743 106.557 85.4614C105.208 83.5648 102.848 82.8648 101.837 82.752C103.995 84.3776 103.635 85.0098 103.186 85.1227C101.028 83.4971 99.1401 83.0906 98.4659 83.0906C92.263 85.8001 94.5329 88.9611 96.4432 90.2029C96.7803 89.4127 97.9939 87.629 100.151 86.8161C102.309 86.0033 101.949 86.929 101.5 87.4935C99.8143 88.1709 96.578 89.7288 97.1174 90.5416C97.6568 91.3545 101.388 92.235 103.185 92.5737C103.747 91.5577 104.736 89.3224 104.197 88.5095C103.523 87.4935 105.545 87.1548 105.545 88.1709C105.545 89.1869 103.523 92.235 103.86 92.5737C104.129 92.8447 105.321 92.6866 105.882 92.5737L107.568 91.219Z"
          fill="#9CD39A"/>
    <path d="M111.941 90.2029C103.581 90.4739 103.626 98.7829 104.525 102.057H105.199C104.75 99.5731 104.795 94.0639 108.57 91.8963C112.346 89.7288 113.29 91.4448 113.29 92.5737C114.099 92.3028 115.874 93.1382 116.661 93.5898C116.734 93.6919 116.81 93.7981 116.885 93.901L116.969 93.7508C116.882 93.6075 116.78 93.4417 116.661 93.2511C115.313 91.0835 112.953 90.3158 111.941 90.2029Z"
          fill="#74B571"/>
    <path d="M111.267 79.8065C110.458 79.5356 111.155 76.5326 111.604 75.065C105.401 78.3163 108.121 81.8386 110.256 83.1934C110.48 82.7418 110.93 82.2452 110.93 83.8709C110.93 85.4965 113.177 86.3545 114.301 86.5803L115.65 83.1935C114.975 83.1935 113.627 83.058 113.627 82.5161C113.627 81.9742 114.975 82.2903 115.65 82.5161H118.009L120.032 72.6944C118.908 74.2749 116.526 77.4359 115.987 77.4359C115.447 77.4359 116.886 74.5006 117.672 73.0329C116.863 72.762 113.515 74.049 111.941 74.7263V78.4518C112.054 79.0163 112.076 80.0775 111.267 79.8065Z"
          fill="#9DD49A"/>
    <path d="M109.244 86.5803C107.896 89.2898 106.66 99.9118 106.547 102.395L107.222 102.734C107.334 102.395 108.57 94.7764 108.57 92.3379C108.57 89.8994 110.368 85.9029 111.267 84.2095C109.649 82.3129 116.211 78.2262 119.695 76.4199L120.032 76.0812C119.92 76.0812 119.156 76.3521 116.998 77.4359C114.841 78.5197 111.604 81.7259 110.256 83.1935C110.481 83.1935 110.593 83.8708 109.244 86.5803Z"
          fill="#72B66E"/>
    <path fill-rule="evenodd" clip-rule="evenodd"
          d="M41.2909 42.2152L41.1091 43.9941C41.0017 45.0452 41.7681 46.0027 42.8244 46.1116C44.6454 46.2994 45.2577 47.6699 44.18 49.1623C43.5639 50.018 43.755 51.2328 44.6168 51.8528L46.2551 53.0329C47.0013 53.5899 48.0564 53.4127 48.6108 52.663L48.7411 52.4824C49.8188 50.9899 51.3077 51.1435 52.0511 52.8237L52.1421 53.0271C52.5334 53.8744 53.5306 54.2632 54.374 53.8701L56.2167 53.049C57.1859 52.6178 57.6176 51.4775 57.1884 50.5038C56.435 48.8225 57.3117 47.6056 59.1327 47.7934C60.189 47.9023 61.133 47.1213 61.2404 46.0701L61.4221 44.2912C61.5306 43.2299 60.7531 42.2816 59.7068 42.1737C57.8859 41.9859 57.2736 40.6154 58.3512 39.123C58.9673 38.2672 58.7763 37.0525 57.9144 36.4325L56.2762 35.2524C55.5299 34.6954 54.4748 34.8726 53.9204 35.6223L53.7901 35.8029C52.7125 37.2954 51.2235 37.1418 50.4802 35.4616L50.3891 35.2582C49.9979 34.4109 49.0006 34.0221 48.1573 34.4152L46.3146 35.2363C45.3453 35.6675 44.9126 36.8179 45.3429 37.7815C46.0962 39.4627 45.2196 40.6797 43.3986 40.4919C42.3422 40.383 41.3983 41.164 41.2909 42.2152ZM54.2788 44.4535C54.1077 46.1281 52.6177 47.3463 50.9508 47.1744C49.2839 47.0025 48.0713 45.5056 48.2424 43.831C48.4135 42.1563 49.9035 40.9381 51.5704 41.11C53.2373 41.2819 54.4499 42.7788 54.2788 44.4535Z"
          fill="#9FC8FE"/>
    <path fill-rule="evenodd" clip-rule="evenodd"
          d="M42.261 24.5547C43.3592 24.3126 44.4643 25.0142 44.7076 26.1281L45.1153 27.9953C45.3563 29.0986 44.6579 30.2089 43.5491 30.4532C41.6378 30.8745 41.1529 32.4047 42.4776 33.8585C43.2375 34.7029 43.1789 36.0057 42.3384 36.7691L40.7409 38.2221C40.0156 38.9046 38.8736 38.8449 38.1943 38.1162L38.0341 37.9403C36.72 36.4841 35.1571 36.8286 34.5599 38.706L34.4878 38.9332C34.1745 39.8807 33.1622 40.4151 32.2191 40.1004L30.1629 39.4528C29.2861 39.1772 28.7269 38.3566 28.7281 37.4826L28.8237 37.2293L30.6965 34.6595L31.7078 33.3048L32.6791 32.1897C33.3627 32.5997 34.197 32.7592 35.0361 32.5743C36.7857 32.1886 37.8928 30.4511 37.509 28.6933C37.4212 28.2913 37.263 27.9231 37.0503 27.5988L37.1017 27.5472L37.7759 26.8699L40.1357 24.8378L40.7033 24.4929C41.1176 24.6594 41.6462 24.6902 42.261 24.5547Z"
          fill="#9FC8FE"/>
    <path d="M91.0399 27.2082C91.1293 27.2082 91.2151 27.2439 91.2783 27.3074C91.3415 27.3709 91.377 27.457 91.377 27.5469V28.5629C91.377 28.6527 91.3415 28.7389 91.2783 28.8024C91.2151 28.8659 91.1293 28.9016 91.0399 28.9016C90.9505 28.9016 90.8648 28.8659 90.8015 28.8024C90.7383 28.7389 90.7028 28.6527 90.7028 28.5629V27.5469C90.7028 27.457 90.7383 27.3709 90.8015 27.3074C90.8648 27.2439 90.9505 27.2082 91.0399 27.2082V27.2082ZM91.0399 32.2884C91.1293 32.2884 91.2151 32.3241 91.2783 32.3876C91.3415 32.4511 91.377 32.5373 91.377 32.6271V33.6431C91.377 33.7329 91.3415 33.8191 91.2783 33.8826C91.2151 33.9461 91.1293 33.9818 91.0399 33.9818C90.9505 33.9818 90.8648 33.9461 90.8015 33.8826C90.7383 33.8191 90.7028 33.7329 90.7028 33.6431V32.6271C90.7028 32.5373 90.7383 32.4511 90.8015 32.3876C90.8648 32.3241 90.9505 32.2884 91.0399 32.2884V32.2884ZM94.4111 30.595C94.4111 30.6848 94.3756 30.771 94.3123 30.8345C94.2491 30.898 94.1634 30.9337 94.074 30.9337H93.0626C92.9732 30.9337 92.8875 30.898 92.8242 30.8345C92.761 30.771 92.7255 30.6848 92.7255 30.595C92.7255 30.5052 92.761 30.419 92.8242 30.3555C92.8875 30.292 92.9732 30.2563 93.0626 30.2563H94.074C94.1634 30.2563 94.2491 30.292 94.3123 30.3555C94.3756 30.419 94.4111 30.5052 94.4111 30.595ZM89.3543 30.595C89.3543 30.6848 89.3188 30.771 89.2556 30.8345C89.1924 30.898 89.1066 30.9337 89.0172 30.9337H88.0059C87.9165 30.9337 87.8307 30.898 87.7675 30.8345C87.7043 30.771 87.6688 30.6848 87.6688 30.595C87.6688 30.5052 87.7043 30.419 87.7675 30.3555C87.8307 30.292 87.9165 30.2563 88.0059 30.2563H89.0172C89.1066 30.2563 89.1924 30.292 89.2556 30.3555C89.3188 30.419 89.3543 30.5052 89.3543 30.595ZM93.4237 32.9898C93.3604 33.0533 93.2747 33.089 93.1853 33.089C93.0959 33.089 93.0102 33.0533 92.947 32.9898L92.232 32.2715C92.1706 32.2076 92.1366 32.122 92.1373 32.0332C92.1381 31.9444 92.1736 31.8595 92.2361 31.7967C92.2986 31.7339 92.3831 31.6983 92.4715 31.6975C92.5599 31.6967 92.6451 31.7309 92.7086 31.7926L93.4237 32.5106C93.455 32.542 93.4799 32.5794 93.4968 32.6205C93.5138 32.6616 93.5225 32.7057 93.5225 32.7502C93.5225 32.7947 93.5138 32.8388 93.4968 32.8799C93.4799 32.921 93.455 32.9584 93.4237 32.9898V32.9898ZM89.8479 29.3974C89.7847 29.4609 89.6989 29.4966 89.6095 29.4966C89.5201 29.4966 89.4344 29.4609 89.3712 29.3974L88.6565 28.6794C88.5933 28.6159 88.5577 28.5298 88.5577 28.4399C88.5576 28.3501 88.5931 28.2639 88.6563 28.2003C88.7196 28.1368 88.8053 28.1011 88.8947 28.101C88.9842 28.101 89.0699 28.1367 89.1332 28.2002L89.8479 28.9185C89.9111 28.982 89.9466 29.0682 89.9466 29.158C89.9466 29.2478 89.9111 29.3339 89.8479 29.3974V29.3974ZM88.6565 32.9898C88.5933 32.9263 88.5578 32.8402 88.5578 32.7504C88.5578 32.6606 88.5933 32.5744 88.6565 32.5109L89.3715 31.7926C89.4026 31.7602 89.4398 31.7344 89.481 31.7167C89.5221 31.6989 89.5663 31.6896 89.6111 31.6892C89.6558 31.6888 89.7002 31.6974 89.7417 31.7144C89.7831 31.7314 89.8207 31.7566 89.8524 31.7884C89.884 31.8202 89.9091 31.858 89.926 31.8996C89.943 31.9412 89.9515 31.9858 89.9511 32.0308C89.9507 32.0758 89.9414 32.1202 89.9238 32.1615C89.9061 32.2028 89.8804 32.2402 89.8482 32.2715L89.1335 32.9898C89.1022 33.0213 89.065 33.0463 89.0241 33.0633C88.9832 33.0804 88.9393 33.0891 88.895 33.0891C88.8507 33.0891 88.8069 33.0804 88.7659 33.0633C88.725 33.0463 88.6878 33.0213 88.6565 32.9898V32.9898ZM92.232 29.3974C92.1688 29.3339 92.1333 29.2478 92.1333 29.158C92.1333 29.0682 92.1688 28.982 92.232 28.9185L92.9466 28.2002C93.0099 28.1366 93.0956 28.1009 93.185 28.1009C93.2745 28.1008 93.3602 28.1365 93.4235 28.2C93.4868 28.2635 93.5223 28.3497 93.5223 28.4395C93.5224 28.5293 93.4869 28.6155 93.4237 28.6791L92.7086 29.3974C92.6454 29.4609 92.5597 29.4966 92.4703 29.4966C92.3809 29.4966 92.2952 29.4609 92.232 29.3974V29.3974Z"
          fill="#7BCAF4"/>
    <g clip-path="url(#clip0_292_2428)">
        <path d="M38.7872 64.9712C38.8542 64.9712 38.9185 64.9979 38.9659 65.0456C39.0134 65.0932 39.04 65.1578 39.04 65.2252V65.9872C39.04 66.0546 39.0134 66.1192 38.9659 66.1668C38.9185 66.2145 38.8542 66.2412 38.7872 66.2412C38.7201 66.2412 38.6558 66.2145 38.6084 66.1668C38.561 66.1192 38.5343 66.0546 38.5343 65.9872V65.2252C38.5343 65.1578 38.561 65.0932 38.6084 65.0456C38.6558 64.9979 38.7201 64.9712 38.7872 64.9712V64.9712ZM38.7872 68.7813C38.8542 68.7813 38.9185 68.8081 38.9659 68.8557C39.0134 68.9034 39.04 68.968 39.04 69.0354V69.7974C39.04 69.8648 39.0134 69.9294 38.9659 69.977C38.9185 70.0246 38.8542 70.0514 38.7872 70.0514C38.7201 70.0514 38.6558 70.0246 38.6084 69.977C38.561 69.9294 38.5343 69.8648 38.5343 69.7974V69.0354C38.5343 68.968 38.561 68.9034 38.6084 68.8557C38.6558 68.8081 38.7201 68.7813 38.7872 68.7813V68.7813ZM41.3155 67.5113C41.3155 67.5787 41.2889 67.6433 41.2415 67.6909C41.1941 67.7385 41.1297 67.7653 41.0627 67.7653H40.3042C40.2371 67.7653 40.1728 67.7385 40.1254 67.6909C40.078 67.6433 40.0513 67.5787 40.0513 67.5113C40.0513 67.4439 40.078 67.3793 40.1254 67.3317C40.1728 67.284 40.2371 67.2573 40.3042 67.2573H41.0627C41.1297 67.2573 41.1941 67.284 41.2415 67.3317C41.2889 67.3793 41.3155 67.4439 41.3155 67.5113ZM37.523 67.5113C37.523 67.5787 37.4963 67.6433 37.4489 67.6909C37.4015 67.7385 37.3372 67.7653 37.2701 67.7653H36.5116C36.4446 67.7653 36.3803 67.7385 36.3328 67.6909C36.2854 67.6433 36.2588 67.5787 36.2588 67.5113C36.2588 67.4439 36.2854 67.3793 36.3328 67.3317C36.3803 67.284 36.4446 67.2573 36.5116 67.2573H37.2701C37.3372 67.2573 37.4015 67.284 37.4489 67.3317C37.4963 67.3793 37.523 67.4439 37.523 67.5113ZM40.575 69.3074C40.5276 69.355 40.4633 69.3818 40.3962 69.3818C40.3292 69.3818 40.2649 69.355 40.2175 69.3074L39.6812 68.7686C39.6351 68.7207 39.6096 68.6566 39.6102 68.59C39.6108 68.5234 39.6374 68.4597 39.6843 68.4126C39.7311 68.3655 39.7946 68.3388 39.8609 68.3382C39.9271 68.3376 39.991 68.3632 40.0387 68.4095L40.575 68.948C40.5985 68.9716 40.6171 68.9996 40.6298 69.0304C40.6426 69.0613 40.6491 69.0943 40.6491 69.1277C40.6491 69.1611 40.6426 69.1941 40.6298 69.225C40.6171 69.2558 40.5985 69.2838 40.575 69.3074V69.3074ZM37.8931 66.6131C37.8457 66.6607 37.7814 66.6875 37.7144 66.6875C37.6473 66.6875 37.583 66.6607 37.5356 66.6131L36.9996 66.0746C36.9522 66.027 36.9255 65.9624 36.9255 65.895C36.9254 65.8276 36.9521 65.763 36.9995 65.7153C37.0469 65.6676 37.1112 65.6408 37.1783 65.6408C37.2453 65.6408 37.3097 65.6675 37.3571 65.7152L37.8931 66.2539C37.9405 66.3016 37.9672 66.3662 37.9672 66.4335C37.9672 66.5009 37.9405 66.5655 37.8931 66.6131V66.6131ZM36.9996 69.3074C36.9522 69.2598 36.9256 69.1952 36.9256 69.1278C36.9256 69.0605 36.9522 68.9959 36.9996 68.9482L37.5359 68.4095C37.5592 68.3852 37.5871 68.3659 37.6179 68.3525C37.6488 68.3392 37.682 68.3322 37.7155 68.3319C37.7491 68.3316 37.7824 68.3381 37.8135 68.3508C37.8445 68.3636 37.8728 68.3825 37.8965 68.4063C37.9203 68.4302 37.939 68.4585 37.9517 68.4897C37.9645 68.521 37.9708 68.5544 37.9706 68.5881C37.9703 68.6219 37.9633 68.6552 37.95 68.6862C37.9368 68.7172 37.9175 68.7452 37.8934 68.7686L37.3574 69.3074C37.3339 69.331 37.306 69.3498 37.2753 69.3625C37.2446 69.3753 37.2117 69.3819 37.1785 69.3819C37.1453 69.3819 37.1124 69.3753 37.0817 69.3625C37.051 69.3498 37.0231 69.331 36.9996 69.3074V69.3074ZM39.6812 66.6131C39.6338 66.5655 39.6072 66.5009 39.6072 66.4335C39.6072 66.3662 39.6338 66.3016 39.6812 66.2539L40.2172 65.7152C40.2646 65.6675 40.3289 65.6407 40.396 65.6407C40.4631 65.6407 40.5274 65.6674 40.5748 65.715C40.6223 65.7627 40.6489 65.8273 40.649 65.8947C40.649 65.9621 40.6224 66.0267 40.575 66.0743L40.0387 66.6131C39.9913 66.6607 39.927 66.6875 39.8599 66.6875C39.7929 66.6875 39.7286 66.6607 39.6812 66.6131V66.6131Z"
              fill="#7BCAF4"/>
    </g>
    <defs>
        <clipPath id="clip0_292_2428">
            <rect width="6.06808" height="6.09627" fill="white" transform="translate(35.7532 64.4632)"/>
        </clipPath>
    </defs>
</svg>