<svg xmlns="http://www.w3.org/2000/svg" width="16" height="16" viewBox="0 0 16 16" fill="none">
    <path d="M14 3.98672C11.78 3.76672 9.54667 3.65339 7.32 3.65339C6 3.65339 4.68 3.72006 3.36 3.85339L2 3.98672" stroke="#E74646" stroke-linecap="round" stroke-linejoin="round"/>
    <path d="M5.66666 3.31334L5.81332 2.44C5.91999 1.80667 5.99999 1.33334 7.12666 1.33334H8.87332C9.99999 1.33334 10.0867 1.83334 10.1867 2.44667L10.3333 3.31334" stroke="#E74646" stroke-linecap="round" stroke-linejoin="round"/>
    <path d="M12.5667 6.09323L12.1333 12.8066C12.06 13.8532 12 14.6666 10.14 14.6666H5.85999C3.99999 14.6666 3.93999 13.8532 3.86665 12.8066L3.43332 6.09323" stroke="#E74646" stroke-linecap="round" stroke-linejoin="round"/>
    <path d="M6.88672 11H9.10672" stroke="#E74646" stroke-linecap="round" stroke-linejoin="round"/>
    <path d="M6.33334 8.33334H9.66668" stroke="#E74646" stroke-linecap="round" stroke-linejoin="round"/>
</svg>