<svg xmlns="http://www.w3.org/2000/svg" width="18" height="18" viewBox="0 0 18 18" fill="none">
    <path d="M11.08 9.46399V11.648C11.08 13.472 10.352 14.2 8.52799 14.2H6.35199C4.53599 14.2 3.79999 13.472 3.79999 11.648V9.46399C3.79999 7.64799 4.52799 6.91999 6.35199 6.91999H8.53599C10.352 6.91999 11.08 7.64799 11.08 9.46399Z" stroke="#292D32" stroke-width="1.2" stroke-linecap="round" stroke-linejoin="round"/>
    <path d="M14.1999 6.344V8.528C14.1999 10.352 13.4719 11.08 11.6479 11.08H11.0799V9.464C11.0799 7.648 10.3519 6.92 8.52792 6.92H6.91992V6.344C6.91992 4.52 7.64792 3.8 9.47192 3.8H11.6559C13.4719 3.8 14.1999 4.528 14.1999 6.344Z" stroke="#292D32" stroke-width="1.2" stroke-linecap="round" stroke-linejoin="round"/>
    <path d="M17 11.4C17 14.496 14.496 17 11.4 17L12.24 15.6" stroke="#292D32" stroke-width="1.2" stroke-linecap="round" stroke-linejoin="round"/>
    <path d="M1 6.6C1 3.504 3.504 1 6.6 1L5.76 2.4" stroke="#292D32" stroke-width="1.2" stroke-linecap="round" stroke-linejoin="round"/>
</svg>