<svg width="32" height="32" viewBox="0 0 32 32" fill="none" xmlns="http://www.w3.org/2000/svg">
    <path d="M12.2259 20.7733C11.9725 20.7733 11.7192 20.68 11.5192 20.48C11.1325 20.0933 11.1325 19.4533 11.5192 19.0666L19.0659 11.52C19.4525 11.1333 20.0925 11.1333 20.4792 11.52C20.8659 11.9066 20.8659 12.5466 20.4792 12.9333L12.9325 20.48C12.7459 20.68 12.4792 20.7733 12.2259 20.7733Z" fill="#7B7B7B"/>
    <path d="M19.7725 20.7733C19.5192 20.7733 19.2659 20.68 19.0659 20.48L11.5192 12.9333C11.1325 12.5466 11.1325 11.9066 11.5192 11.52C11.9059 11.1333 12.5459 11.1333 12.9325 11.52L20.4792 19.0666C20.8659 19.4533 20.8659 20.0933 20.4792 20.48C20.2792 20.68 20.0259 20.7733 19.7725 20.7733Z" fill="#7B7B7B"/>
</svg>