<svg xmlns="http://www.w3.org/2000/svg" width="797px" height="649px" viewBox="0 0 797 611" fill="none">
    <path fill-rule="evenodd" clip-rule="evenodd" d="M703.132 353.082C722.564 354.659 726.841 381.366 741.67 394.001C759.292 409.015 794.286 409.43 796.308 432.469C798.3 455.173 768.45 466.273 749.069 478.323C735.097 487.01 719.485 488.522 703.132 490.399C683.208 492.686 661.465 502.028 645.257 490.238C627.943 477.642 620.919 453.7 623.498 432.469C625.87 412.947 643.835 401.09 657.774 387.194C671.698 373.313 683.517 351.491 703.132 353.082Z" fill="#E3F7FF" fill-opacity="0.5" />
    <path fill-rule="evenodd" clip-rule="evenodd" d="M43.1277 211.39C56.9495 195.17 77.6305 181.585 99.9523 185.661C120.576 189.428 130.444 212.743 143.455 229.713C152.413 241.396 158.512 253.423 162.501 267.24C167.743 285.399 178.34 304.975 169.7 320.626C160.216 337.805 139.322 346.889 118.777 346.443C99.006 346.013 82.8017 331.383 66.9199 318.395C50.3216 304.82 31.4488 291.6 26.9436 271.338C22.089 249.505 29.3817 227.522 43.1277 211.39Z" fill="#E3F7FF" fill-opacity="0.6" />
    <circle cx="701.408" cy="204.409" r="28.8005" fill="#42B3EF" fill-opacity="0.7" />
    <circle cx="701.601" cy="204.601" r="32.6406" stroke="#706D79" stroke-width="1.92003" />
    <path d="M699.873 187.513V208.249L712.929 207.558" stroke="white" stroke-width="1.53603" />
    <path d="M652.019 365.76C666.79 383.682 645.208 393.579 632.57 396.287C624.364 394.646 610.462 398.158 620.507 425.337C630.551 452.516 664.246 460.952 679.838 461.773C688.537 461.691 709.578 457.391 724.152 440.847C738.727 424.303 730.225 407.365 724.152 400.964C714.141 394.892 700.912 374.77 728.091 342.864C762.065 302.982 727.599 286.487 712.828 282.794C701.01 279.84 694.281 238.234 692.394 217.8C688.373 204.834 675.85 182.792 657.928 198.351C635.524 217.8 649.803 223.955 631.832 259.406C617.454 287.767 621.902 319.312 625.923 331.539C628.467 335.478 637.248 347.837 652.019 365.76Z" fill="#5DB276" />
    <path d="M700.273 324.4C693.97 325.779 683.86 338.597 679.593 344.834C679.347 348.198 679.002 353.992 679.593 350.25C680.184 346.508 693.297 334.576 699.78 329.078C702.57 326.944 706.575 323.022 700.273 324.4Z" fill="#4B678F" />
    <path d="M677.868 301.259V486.392L680.576 486.639V301.259C679.395 298.501 678.278 300.11 677.868 301.259Z" fill="#4B678F" />
    <path d="M661.866 412.043C668.759 415.392 675.898 425.255 678.607 429.769L679.345 424.845C677.572 418.543 666.954 411.879 661.866 409.335C658.994 408.843 654.972 408.695 661.866 412.043Z" fill="#4B678F" />
    <path d="M711.843 485.407H647.095C647.095 490.659 647.341 503.33 648.326 511.996C649.311 520.661 656.45 524.469 659.897 525.29H696.579C706.624 523.911 710.94 515.853 711.843 511.996V485.407Z" fill="#FFC25B" />
    <path d="M711.843 488.854H647.095L647.183 491.808H711.843V488.854Z" fill="#FFE59B" />
    <rect x="66" y="525.29" width="690.98" height="2.16778" rx="1.08389" fill="#7F98B6" />
    <rect x="242.133" y="542.09" width="127.357" height="2.16778" rx="1.08389" fill="#7F98B6" />
    <rect x="332.637" y="555.097" width="172.88" height="2.16778" rx="1.08389" fill="#7F98B6" />
    <rect x="402.006" y="542.09" width="210.817" height="2.16778" rx="1.08389" fill="#7F98B6" />
    <rect x="406" y="570" width="210.817" height="2.16778" rx="1.08389" fill="#7F98B6" />
    <rect x="281" y="584" width="210.817" height="2.16778" rx="1.08389" fill="#7F98B6" />
    <rect x="561.88" y="557.265" width="130.609" height="2.16778" rx="1.08389" fill="#7F98B6" />
    <rect x="600" y="585" width="130.609" height="2.16778" rx="1.08389" fill="#7F98B6" />
    <rect x="671.895" y="542.09" width="62.8656" height="2.16778" rx="1.08389" fill="#7F98B6" />
    <rect x="268" y="74.3247" width="331.176" height="210.675" fill="#EEF5FB" />
    <rect x="268" y="44" width="331.176" height="30.3245" fill="#CCE3F8" />
    <circle cx="547.304" cy="59.1624" r="3.99007" fill="#4FCC64" />
    <circle cx="560.072" cy="59.1624" r="3.99007" fill="#F6C32A" />
    <circle cx="572.84" cy="59.1624" r="3.99007" fill="#8FCEF1" />
    <path fill-rule="evenodd" clip-rule="evenodd" d="M483.463 179.263C483.463 206.809 461.133 229.139 433.587 229.139C406.042 229.139 383.711 206.809 383.711 179.263C383.711 151.717 406.042 129.387 433.587 129.387C461.133 129.387 483.463 151.717 483.463 179.263ZM430.171 151.478C430.171 149.591 431.7 148.062 433.587 148.062C435.474 148.062 437.003 149.591 437.003 151.478V197.482C437.003 199.369 435.474 200.898 433.587 200.898C431.7 200.898 430.171 199.369 430.171 197.482V151.478ZM433.587 210.464C435.474 210.464 437.003 208.935 437.003 207.048C437.003 205.161 435.474 203.632 433.587 203.632C431.7 203.632 430.171 205.161 430.171 207.048C430.171 208.935 431.7 210.464 433.587 210.464Z" fill="#F994A4" />
    <rect x="287.95" y="89.4868" width="26.3344" height="10.3742" fill="#79C8F3" />
    <rect x="322.265" y="89.4868" width="26.3344" height="10.3742" fill="#5DB276" />
    <rect x="722.892" y="374.636" width="18.7106" height="12.3878" rx="1.64942" transform="rotate(-36.0954 722.892 374.636)" stroke="#62BACE" stroke-width="0.652896" />
    <path d="M735.516 375.636L723.982 374.358C723.801 374.338 723.741 374.106 723.889 374.001L737.703 364.16C737.85 364.055 738.048 364.184 738.012 364.36L735.732 375.479C735.711 375.579 735.618 375.647 735.516 375.636Z" stroke="#62BACE" stroke-width="0.652896" />
    <circle cx="737.901" cy="363.411" r="2.07466" transform="rotate(-36.0954 737.901 363.411)" fill="#62BACE" />
    <rect x="618.49" y="160.765" width="22.3807" height="14.8177" rx="1.97296" transform="rotate(-24.3237 618.49 160.765)" stroke="#62BACE" stroke-width="0.780963" />
    <path d="M633.028 165.017L619.833 160.706C619.627 160.639 619.613 160.352 619.812 160.265L638.39 152.112C638.587 152.026 638.787 152.225 638.702 152.422L633.319 164.886C633.27 164.998 633.144 165.055 633.028 165.017Z" stroke="#62BACE" stroke-width="0.780963" />
    <circle cx="638.805" cy="151.283" r="2.48161" transform="rotate(-24.3237 638.805 151.283)" fill="#62BACE" />
    <path d="M283.499 2.58301C283.842 2.58301 284.17 2.71909 284.413 2.96133C284.655 3.20356 284.791 3.5321 284.791 3.87467V7.74967C284.791 8.09225 284.655 8.42079 284.413 8.66302C284.17 8.90526 283.842 9.04134 283.499 9.04134C283.157 9.04134 282.828 8.90526 282.586 8.66302C282.344 8.42079 282.208 8.09225 282.208 7.74967V3.87467C282.208 3.5321 282.344 3.20356 282.586 2.96133C282.828 2.71909 283.157 2.58301 283.499 2.58301ZM283.499 21.958C283.842 21.958 284.17 22.0941 284.413 22.3363C284.655 22.5786 284.791 22.9071 284.791 23.2497V27.1247C284.791 27.4672 284.655 27.7958 284.413 28.038C284.17 28.2803 283.842 28.4163 283.499 28.4163C283.157 28.4163 282.828 28.2803 282.586 28.038C282.344 27.7958 282.208 27.4672 282.208 27.1247V23.2497C282.208 22.9071 282.344 22.5786 282.586 22.3363C282.828 22.0941 283.157 21.958 283.499 21.958ZM296.416 15.4997C296.416 15.8422 296.28 16.1708 296.038 16.413C295.795 16.6553 295.467 16.7913 295.124 16.7913H291.249C290.907 16.7913 290.578 16.6553 290.336 16.413C290.094 16.1708 289.958 15.8422 289.958 15.4997C289.958 15.1571 290.094 14.8286 290.336 14.5863C290.578 14.3441 290.907 14.208 291.249 14.208H295.124C295.467 14.208 295.795 14.3441 296.038 14.5863C296.28 14.8286 296.416 15.1571 296.416 15.4997ZM277.041 15.4997C277.041 15.8422 276.905 16.1708 276.663 16.413C276.42 16.6553 276.092 16.7913 275.749 16.7913H271.874C271.532 16.7913 271.203 16.6553 270.961 16.413C270.719 16.1708 270.583 15.8422 270.583 15.4997C270.583 15.1571 270.719 14.8286 270.961 14.5863C271.203 14.3441 271.532 14.208 271.874 14.208H275.749C276.092 14.208 276.42 14.3441 276.663 14.5863C276.905 14.8286 277.041 15.1571 277.041 15.4997ZM292.633 24.633C292.39 24.8752 292.062 25.0112 291.719 25.0112C291.377 25.0112 291.048 24.8752 290.806 24.633L288.067 21.8934C287.831 21.6498 287.701 21.3235 287.704 20.9849C287.707 20.6462 287.843 20.3222 288.082 20.0827C288.322 19.8433 288.646 19.7074 288.984 19.7045C289.323 19.7015 289.649 19.8317 289.893 20.067L292.633 22.8053C292.753 22.9253 292.848 23.0678 292.913 23.2246C292.978 23.3814 293.011 23.5495 293.011 23.7192C293.011 23.8889 292.978 24.057 292.913 24.2138C292.848 24.3706 292.753 24.5131 292.633 24.633ZM278.932 10.9323C278.69 11.1745 278.361 11.3105 278.019 11.3105C277.676 11.3105 277.348 11.1745 277.105 10.9323L274.367 8.19401C274.125 7.95181 273.989 7.62325 273.988 7.28061C273.988 6.93797 274.124 6.60931 274.366 6.36695C274.609 6.12458 274.937 5.98835 275.28 5.98823C275.622 5.9881 275.951 6.1241 276.194 6.3663L278.932 9.10593C279.174 9.34815 279.31 9.67663 279.31 10.0191C279.31 10.3616 279.174 10.6901 278.932 10.9323ZM274.367 24.633C274.125 24.3908 273.989 24.0623 273.989 23.7198C273.989 23.3773 274.125 23.0489 274.367 22.8066L277.107 20.067C277.226 19.9436 277.368 19.8452 277.526 19.7775C277.684 19.7098 277.853 19.6742 278.025 19.6727C278.196 19.6712 278.366 19.7039 278.525 19.7689C278.684 19.8338 278.828 19.9297 278.949 20.051C279.07 20.1723 279.166 20.3165 279.231 20.4752C279.296 20.634 279.329 20.8041 279.327 20.9756C279.326 21.1471 279.29 21.3166 279.223 21.4742C279.155 21.6317 279.057 21.7743 278.933 21.8934L276.195 24.633C276.075 24.7531 275.932 24.8484 275.776 24.9134C275.619 24.9784 275.451 25.0119 275.281 25.0119C275.111 25.0119 274.943 24.9784 274.786 24.9134C274.63 24.8484 274.487 24.7531 274.367 24.633ZM288.067 10.9323C287.824 10.6901 287.688 10.3616 287.688 10.0191C287.688 9.67663 287.824 9.34815 288.067 9.10593L290.805 6.3663C291.047 6.12393 291.376 5.9877 291.718 5.98758C292.061 5.98746 292.39 6.12346 292.632 6.36565C292.874 6.60785 293.011 6.93641 293.011 7.27905C293.011 7.62169 292.875 7.95035 292.633 8.19272L289.893 10.9323C289.651 11.1745 289.322 11.3105 288.98 11.3105C288.637 11.3105 288.309 11.1745 288.067 10.9323Z" fill="#7BCAF4" />
    <path d="M534.193 222.128C538.781 224.676 557.769 218.092 566.689 214.481L561.592 181.348C555.432 178.375 542.604 173.32 540.565 176.888C538.526 180.456 536.317 188.994 535.467 192.817C532.919 197.405 533.556 214.269 534.193 222.128Z" fill="#FFBE9E" />
    <path d="M552.671 217.03V231.048L576.884 229.773L574.972 208.747L552.671 217.03Z" fill="#FFBE9E" />
    <path d="M575.61 212.569C583.766 208.491 587.504 196.002 588.353 190.268C590.477 189.631 593.068 191.415 586.442 203.649C579.815 215.883 593.026 216.818 600.46 215.756C595.362 215.118 592.814 212.57 597.274 197.277C600.842 185.044 592.814 181.985 588.353 181.985C587.334 173.829 579.008 167.542 574.973 165.418C552.034 151.655 542.476 167.329 540.565 176.887C554.583 177.524 557.769 185.17 556.494 199.188C555.22 213.206 565.415 217.667 575.61 212.569Z" fill="#7C4A26" />
    <path d="M557.131 587.868L564.777 585.956C568.346 591.563 576.459 589.992 580.07 588.505C580.919 589.354 582.618 593.22 582.618 601.886C582.618 610.551 565.627 607.195 557.131 604.434V587.868Z" fill="#0E4815" />
    <path d="M564.778 586.593C569.875 592.71 577.096 590.416 580.07 588.505L581.981 491.654C585.55 484.517 585.592 459.37 585.167 447.688L589.628 436.856L561.592 435.582L560.955 484.008L564.778 586.593Z" fill="#FFBE9E" />
    <path d="M543.114 591.691L538.653 454.698C550.335 443.016 572.806 425.005 569.238 446.415C565.67 467.824 562.229 485.495 560.955 491.654L558.406 593.603C553.308 596.661 546.087 593.603 543.114 591.691Z" fill="#FFBE9E" />
    <path d="M507.431 599.337C508.96 597.298 531.857 592.328 543.114 589.779L543.113 591.054C546.681 594.112 554.795 594.027 558.406 593.602C560.105 598.275 561.464 608.13 553.308 610.169C543.113 612.718 505.52 601.886 507.431 599.337Z" fill="#0E4815" />
    <path d="M614.477 338.094C611.929 335.036 612.991 330.448 613.84 328.536L605.557 323.439C603.645 336.395 601.734 361.797 609.38 359.758C618.938 357.209 617.663 341.917 614.477 338.094Z" fill="#FFBE9E" />
    <path d="M604.92 400.537C610.017 392.891 606.194 375.687 603.646 368.041L518.264 371.864L507.432 449.6C531.644 462.981 541.202 460.432 560.317 452.149C575.61 445.522 598.123 449.812 607.469 452.786L604.92 400.537Z" fill="#272727" />
    <path d="M589.627 385.245C558.023 401.047 533.981 389.281 525.91 381.422L547.574 374.413L606.194 366.13C607.256 374.413 608.743 393.401 606.194 397.989C603.645 402.576 607.468 435.582 607.468 452.786L599.185 450.875C601.097 444.503 597.911 410.095 590.902 409.458C585.295 408.948 588.566 404.148 590.902 401.812C608.743 381.932 597.486 382.484 589.627 385.245Z" fill="#525252" />
    <path d="M515.078 373.138C516.607 369.57 512.317 366.554 509.98 365.492L522.724 357.846C524.636 369.315 528.076 392.509 526.547 393.528C525.018 394.548 519.538 393.953 516.989 393.528C502.334 390.342 513.166 377.599 515.078 373.138Z" fill="#FFBE9E" />
    <path fill-rule="evenodd" clip-rule="evenodd" d="M522.724 359.758C519.963 360.82 513.803 363.708 511.255 366.767C508.706 369.825 505.52 359.97 504.246 354.66C500.21 342.342 492.139 316.557 492.139 311.969C492.139 306.235 494.051 287.757 504.883 274.376C509.129 269.131 512.396 264.375 515.221 260.262C519.603 253.884 522.922 249.052 527.184 246.34C528.034 242.517 534.32 233.724 552.671 229.136C575.61 223.402 583.256 224.039 593.451 228.499C603.645 232.959 632.956 259.084 634.867 266.73C636.779 274.376 618.3 325.35 614.477 329.81L611.292 329.173C611.292 339.581 611.037 361.669 610.017 366.767C608.743 373.139 552.671 396.077 525.91 381.422L522.724 359.758ZM612.566 278.199C612.056 273.611 606.831 271.19 604.283 270.553C602.397 274.593 603.393 286.162 605.316 298.589C607.945 293.704 613.076 282.787 612.566 278.199ZM518.901 322.801C516.989 315.155 515.46 299.098 524.635 296.04L520.177 325.987C519.728 324.846 519.298 323.776 518.901 322.801Z" fill="#4FCC64" />
    <path d="M552.672 269.279C560.318 259.594 555.008 249.951 551.397 246.34C553.436 255.516 551.397 260.783 550.123 262.27L524.636 296.04L523.999 300.5C529.946 294.129 545.025 278.964 552.672 269.279Z" fill="#38AF4B" />
    <path d="M618.938 271.19C616.899 269.66 611.717 271.615 609.38 273.102L612.566 277.731L611.929 282.659C613.841 281.385 617.919 278.708 616.389 278.198C614.86 277.689 614.903 276.712 615.115 276.287C617.239 275.225 620.977 272.719 618.938 271.19Z" fill="#338F40" />
    <path d="M602.371 279.474C605.43 284.061 615.752 340.643 610.017 367.404L606.194 370.59L601.097 373.139L595.999 375.687L590.902 377.599C592.814 362.944 595.999 329.043 595.999 315.79C595.999 302.537 587.504 297.099 583.256 296.037C588.778 289.028 599.313 274.886 602.371 279.474Z" fill="#37B049" />
    <path d="M532.924 352.748C528.846 358.865 528.463 354.235 527.826 352.111C526.34 344.04 520.686 329.428 520.176 325.35C519.539 320.253 524.64 305.597 523.366 312.606C522.092 319.615 538.021 345.102 532.924 352.748Z" fill="#38AF4B" />
    <path d="M492.14 308.784C491.715 303.687 492.012 292.6 496.6 289.032C502.335 284.572 511.255 310.059 492.14 308.784Z" fill="#F7F7F7" />
    <path d="M356.154 327.599C357.601 328.082 357.159 338.247 356.757 343.27L382.674 333.627V329.408L374.838 313.737C367.806 301.482 352.417 278.176 347.113 282.998C341.809 287.82 339.68 297.463 339.278 301.682C337.35 306.022 338.876 319.161 339.881 325.188C344.703 328.082 352.739 328.001 356.154 327.599Z" fill="#FFBE9E" />
    <path d="M370.017 328.805C361.82 323.984 365.798 319.564 368.812 317.957C377.45 319.162 394.246 322.176 392.317 324.586C389.906 327.6 380.263 334.833 370.017 328.805Z" fill="#614C15" />
    <path d="M345.306 264.314C345.306 270.583 350.529 270.543 353.141 269.739L356.155 292.039C340.725 282.878 342.493 269.739 345.306 264.314Z" fill="#614C15" />
    <path d="M357.36 313.737C356.396 310.362 358.967 305.902 360.374 304.094L364.592 308.313C361.699 309.277 358.565 312.331 357.36 313.737Z" fill="#614C15" />
    <path d="M357.962 266.123C349.765 262.265 348.52 265.721 348.921 267.931C349.725 274.561 353.14 291.557 360.373 306.505C369.414 325.189 377.249 330.614 389.906 326.395C402.563 322.176 404.371 303.491 400.755 287.821C397.139 272.15 383.276 269.136 379.66 268.534C376.044 267.931 368.208 270.944 357.962 266.123Z" fill="#F8CC69" />
    <path d="M359.771 305.901C368.812 323.983 377.25 330.613 389.907 326.394C401.761 322.442 404.099 305.802 401.377 290.833C377.283 266.242 360.976 279.382 353.141 287.217L356.155 296.258L359.771 305.901Z" fill="#F8C22A" />
    <circle cx="363.386" cy="294.45" r="2.41087" fill="#F09802" />
    <circle cx="367.606" cy="303.491" r="1.80815" fill="#F09802" />
    <path d="M418.573 527.702C416.163 516.612 418.774 511.429 420.382 510.223L425.806 505.401L433.641 512.031L435.449 521.675V545.783L425.806 552.413L407.724 551.208C400.974 543.493 411.742 539.154 417.97 537.948L418.573 527.702Z" fill="#0E4A16" />
    <path d="M419.177 545.783C421.587 542.408 423.396 537.144 423.998 534.934C424.601 532.975 423.998 530.715 423.998 522.277C423.998 515.527 424.802 513.036 425.203 512.634C430.989 505.401 435.249 512.031 436.655 516.25C437.057 518.862 437.981 526.737 438.463 537.345C439.066 550.605 431.231 551.81 426.409 552.413C421.587 553.016 416.163 550.002 419.177 545.783Z" fill="#3BA448" />
    <rect x="74" y="239" width="239" height="309" rx="18.0815" fill="#D3EBF7" />
    <rect x="176.544" y="254.67" width="118.133" height="122.955" rx="24.1087" fill="#79C8F3" />
    <circle cx="192.214" cy="278.779" r="7.23262" fill="#F69200" />
    <circle cx="221.144" cy="278.779" r="7.23262" fill="#3AAE4B" />
    <circle cx="250.075" cy="279.985" r="7.23262" fill="#F69200" />
    <circle cx="279.006" cy="278.779" r="7.23262" fill="#3AAE4B" />
    <rect x="199.447" y="299.271" width="31.3413" height="32.5468" rx="2.41087" fill="#EF9511" />
    <rect x="240.432" y="299.271" width="31.3413" height="32.5468" rx="2.41087" fill="#EF9511" />
    <rect x="184.981" y="340.257" width="92.8186" height="7.23262" rx="3.61631" fill="#3AAE4B" />
    <rect x="198.241" y="354.722" width="12.0544" height="12.0544" rx="2.41087" fill="#3AAE4B" />
    <rect x="218.734" y="354.722" width="12.0544" height="12.0544" rx="2.41087" fill="#3AAE4B" />
    <rect x="239.226" y="354.722" width="12.0544" height="12.0544" rx="2.41087" fill="#3AAE4B" />
    <rect x="259.719" y="354.722" width="12.0544" height="12.0544" rx="2.41087" fill="#3AAE4B" />
    <rect x="154.845" y="416.2" width="63.8881" height="66.4958" rx="13.0384" fill="#79C8F3" />
    <rect x="160.521" y="434.281" width="22.7654" height="23.641" rx="1.75118" fill="#EF9511" />
    <rect x="190.292" y="434.281" width="22.7654" height="23.641" rx="1.75118" fill="#EF9511" />
    <rect x="159.409" y="462.486" width="50.1978" height="3.91152" rx="1.95576" fill="#3AAE4B" />
    <rect x="166.579" y="470.309" width="6.5192" height="6.5192" rx="1.30384" fill="#3AAE4B" />
    <rect x="177.662" y="470.309" width="6.5192" height="6.5192" rx="1.30384" fill="#3AAE4B" />
    <rect x="188.745" y="470.309" width="6.5192" height="6.5192" rx="1.30384" fill="#3AAE4B" />
    <rect x="199.828" y="470.309" width="6.5192" height="6.5192" rx="1.30384" fill="#3AAE4B" />
    <rect x="230.789" y="416.2" width="63.8881" height="66.4958" rx="13.0384" fill="#79C8F3" />
    <circle cx="239.264" cy="446.631" r="3.91152" fill="#F69200" />
    <circle cx="254.911" cy="446.631" r="3.91152" fill="#3AAE4B" />
    <circle cx="270.557" cy="447.283" r="3.91152" fill="#F69200" />
    <circle cx="286.202" cy="446.631" r="3.91152" fill="#3AAE4B" />
    <rect x="235.353" y="462.486" width="50.1978" height="3.91152" rx="1.95576" fill="#3AAE4B" />
    <rect x="242.523" y="470.309" width="6.5192" height="6.5192" rx="1.30384" fill="#3AAE4B" />
    <rect x="253.606" y="470.309" width="6.5192" height="6.5192" rx="1.30384" fill="#3AAE4B" />
    <rect x="264.689" y="470.309" width="6.5192" height="6.5192" rx="1.30384" fill="#3AAE4B" />
    <rect x="275.772" y="470.309" width="6.5192" height="6.5192" rx="1.30384" fill="#3AAE4B" />
    <path d="M368.812 534.332C366.401 523.242 369.013 518.058 370.62 516.853L376.044 512.031L383.879 518.661L385.688 528.305V552.413L376.044 559.043L357.963 557.838C351.212 550.123 361.981 545.783 368.209 544.578L368.812 534.332Z" fill="#0E4A16" />
    <path d="M369.415 552.413C371.826 549.038 373.634 543.774 374.237 541.564C374.84 539.605 374.237 537.345 374.237 528.907C374.237 522.157 375.04 519.665 375.442 519.263C381.228 512.031 385.487 518.661 386.893 522.88C387.295 525.492 388.219 533.367 388.701 543.975C389.304 557.235 381.469 558.44 376.647 559.043C371.826 559.646 366.401 556.632 369.415 552.413Z" fill="#3BA448" />
    <path d="M391.111 501.183L387.495 496.964L408.59 489.731C413.613 490.133 422.935 491.539 420.042 493.95C417.149 496.361 399.549 499.776 391.111 501.183Z" fill="#F09401" />
    <path d="M309.745 447.54C329.514 437.415 353.743 445.732 363.386 451.157L451.383 449.952C453.251 482.64 432.28 491.585 420.554 492.116C402.416 499.121 379.26 498.335 367.605 496.964C347.113 494.553 285.033 460.197 309.745 447.54Z" fill="#F8C229" />
    <path d="M389.906 521.073C387.495 538.431 370.418 534.734 362.181 530.716L363.989 512.032L381.468 513.237L389.906 521.073Z" fill="#003003" />
    <path d="M370.619 499.977C314.205 490.816 302.914 466.828 304.32 455.979L367.003 495.758L370.619 499.977Z" fill="#F09401" />
    <path d="M307.937 468.635C308.485 474.105 343.501 512.631 362.185 531.315C368.453 506.242 383.682 514.439 390.513 521.672L370.623 499.974L369.418 499.371C349.528 486.915 307.334 462.609 307.937 468.635Z" fill="#F8C229" />
    <path d="M439.329 514.442C436.918 531.801 421.046 527.501 412.809 523.483L414.617 504.196L430.288 506.004L439.329 514.442Z" fill="#003003" />
    <path d="M260.925 330.614L269.363 342.065C272.779 339.253 279.368 333.386 278.404 332.422C277.198 331.216 278.404 322.778 278.404 320.367C278.404 317.956 275.39 317.354 275.993 315.546C276.596 313.737 276.596 304.697 274.185 302.889C272.256 301.442 270.97 303.491 270.568 304.697C269.564 304.295 266.831 302.889 263.938 300.478C261.045 298.067 257.51 301.081 256.104 302.889C248.389 305.3 251.282 319.966 253.693 326.997L260.925 330.614Z" fill="#FFBE9E" />
    <path d="M412.81 523.483L391.112 501.183L420.645 493.347L439.329 514.442C425.346 500.941 415.823 514.844 412.81 523.483Z" fill="#F8C229" />
    <path d="M315.772 367.982L282.02 327.6C265.143 331.457 263.737 341.664 265.143 346.284L299.498 392.694C313.361 413.789 335.059 394.502 343.497 391.488C350.247 389.077 354.346 396.913 355.551 401.132C353.622 408.364 355.149 435.888 356.154 448.746L367.003 474.061C401.719 447.059 440.133 449.952 455 454.774C454.035 429.218 443.347 409.972 438.124 403.543C440.534 400.73 446.079 392.814 448.973 383.653C451.866 374.492 431.293 353.316 420.645 343.873C414.376 334.712 396.737 332.824 388.701 333.025C363.387 333.025 347.716 348.093 334.456 361.955C323.848 373.045 317.58 370.795 315.772 367.982Z" fill="#79C8F3" />
    <path d="M427.878 387.269C431.253 376.661 420.846 350.704 415.221 339.051C421.851 343.27 435.713 357.133 445.357 370.995C454.926 384.751 443.147 399.725 436.316 404.748C431.896 403.743 424.503 397.877 427.878 387.269Z" fill="#55A9D7" />
    <path d="M313.361 364.968C313.361 371.598 316.736 380.88 327.826 367.379C324.813 369.589 318.786 372.201 313.361 364.968Z" fill="#74BAE0" />
    <path d="M354.346 386.666C351.935 378.469 344.702 386.867 341.688 392.091L348.318 391.488L355.551 401.131L354.948 405.35L354.346 412.583C363.989 404.145 361.779 398.319 359.77 396.912C358.966 396.912 356.756 394.863 354.346 386.666Z" fill="#74BAE0" />
    <path d="M414.015 395.707C418.234 393.698 427.034 387.148 428.48 377.022C427.516 383.773 434.909 397.515 438.727 403.542C448.37 413.668 455 442.116 455 454.773C445.959 451.157 425.668 451.559 414.618 452.965C423.297 447.661 430.489 437.093 433.302 433.075C444.874 411.86 425.266 399.323 414.015 395.707Z" fill="#74BAE0" />
    <path d="M275.992 278.78L266.952 301.683L268.76 304.094L277.801 280.588L275.992 278.78Z" fill="#4E8255" />
    <path d="M253.09 326.394L262.733 302.285L263.336 299.874C268.64 297.464 271.975 302.084 272.979 304.696L271.171 306.504L263.938 328.202C262.974 332.542 259.519 332.823 257.911 332.421C252.607 331.939 252.487 328.202 253.09 326.394Z" fill="#114713" />
    <rect x="95" y="239" width="12.0544" height="308.592" fill="#79C8F3" />
    <rect x="113.081" y="239" width="12.0544" height="308.592" fill="#79C8F3" />
    <rect x="131.163" y="239" width="12.0544" height="308.592" fill="#79C8F3" />
    <path d="M258.934 543.214C254.034 538.357 250.653 532.183 249.201 525.445C247.749 518.706 248.29 511.693 250.758 505.262C253.225 498.83 257.513 493.258 263.098 489.224C268.683 485.189 275.324 482.868 282.212 482.541C289.1 482.215 295.937 483.899 301.889 487.386C307.842 490.874 312.653 496.016 315.736 502.184C318.819 508.353 320.042 515.282 319.254 522.127C318.466 528.971 315.701 535.437 311.298 540.734L306.783 536.984C310.459 532.561 312.767 527.163 313.425 521.448C314.083 515.733 313.063 509.948 310.488 504.798C307.914 499.648 303.897 495.355 298.927 492.443C293.957 489.531 288.249 488.125 282.498 488.398C276.747 488.67 271.202 490.609 266.539 493.977C261.876 497.345 258.296 501.998 256.236 507.367C254.176 512.737 253.724 518.592 254.936 524.219C256.149 529.845 258.972 535 263.063 539.055L258.934 543.214Z" fill="#62BACE" />
    <rect x="273.672" y="518.057" width="4" height="7" fill="#D0EDD4" />
    <path d="M269.672 491.057C269.672 488.295 271.911 486.057 274.672 486.057H281.672V518.057H269.672V491.057Z" fill="#4ECB63" />
    <path d="M285.172 491.557C290.005 503.057 299.672 526.257 299.672 527.057L311.672 528.557L286.172 463.557L252.172 528.557L264.672 530.557L285.172 491.557Z" fill="#C5B9F0" />
    <circle cx="309.672" cy="496.057" r="3" fill="#4ECB63" />
    <path d="M280.172 527.057L289.172 495.057L297.672 496.557L288.172 527.057H280.172Z" fill="#4ECB63" />
    <path d="M310.672 489.557L307.672 501.557L283.172 494.557C279.172 493.057 278.172 492.557 279.172 487.057C279.972 482.657 283.172 482.223 284.672 482.557L310.672 489.557Z" fill="#17551D" />
    <rect x="244.672" y="525.057" width="79" height="55" fill="#62BACE" />
    <path d="M244.672 525.057H323.672V580.057L276.672 548.057L244.672 525.057Z" fill="#56A0B1" />
    <path d="M203.658 223.106C205.609 224.407 205.555 226.719 205.284 227.713L194.987 228.526C194.806 226.087 194.499 220.83 194.716 219.313C194.933 217.795 198.961 216.513 200.948 216.061C199.648 209.774 205.103 209.648 207.993 210.371C208.21 207.986 209.529 206.848 210.161 206.577C216.014 205.71 215.31 208.745 214.226 210.371C210.107 212.755 210.342 214.435 210.974 214.977C215.743 218.879 210.794 220.939 207.723 221.481C205.555 221.481 201.707 221.806 203.658 223.106Z" fill="#3E7E4A" />
    <path d="M177.102 222.836C182.522 222.023 179.812 228.255 181.438 228.797H190.109L194.174 226.629L184.961 215.249H177.644C169.624 208.962 170.509 213.894 171.954 217.145C171.141 220.216 171.541 223.67 177.102 222.836Z" fill="#316151" />
    <path d="M188.213 220.939C185.828 223.54 187.4 226.539 188.483 227.713C191.464 229.52 197.967 231.994 200.135 227.442C202.303 222.89 198.329 220.126 196.071 219.313C196.287 212.593 193.271 211.997 191.735 212.539C190.29 213.622 187.562 214.49 188.213 209.287C188.863 204.084 185.412 203.687 183.606 204.138C182.432 204.68 180.517 205.981 182.251 206.848C183.985 207.715 184.6 209.919 184.69 210.913C183.154 212.087 180.95 214.869 184.419 216.603C187.887 218.337 188.393 220.216 188.213 220.939Z" fill="#6FAF41" />
    <path d="M205.013 227.171H182.251C176.181 229.989 177.964 236.381 179.5 239H208C211.685 232.713 207.542 228.345 205.013 227.171Z" fill="#E2EAED" />
    <path d="M428.025 309.671C428.247 309.671 428.459 309.759 428.616 309.916C428.773 310.072 428.861 310.285 428.861 310.506V313.013C428.861 313.234 428.773 313.447 428.616 313.604C428.459 313.76 428.247 313.848 428.025 313.848C427.804 313.848 427.591 313.76 427.435 313.604C427.278 313.447 427.19 313.234 427.19 313.013V310.506C427.19 310.285 427.278 310.072 427.435 309.916C427.591 309.759 427.804 309.671 428.025 309.671ZM428.025 322.203C428.247 322.203 428.459 322.291 428.616 322.448C428.773 322.605 428.861 322.817 428.861 323.039V325.545C428.861 325.767 428.773 325.979 428.616 326.136C428.459 326.293 428.247 326.381 428.025 326.381C427.804 326.381 427.591 326.293 427.435 326.136C427.278 325.979 427.19 325.767 427.19 325.545V323.039C427.19 322.817 427.278 322.605 427.435 322.448C427.591 322.291 427.804 322.203 428.025 322.203ZM436.38 318.026C436.38 318.247 436.292 318.46 436.136 318.617C435.979 318.773 435.766 318.861 435.545 318.861H433.038C432.817 318.861 432.604 318.773 432.448 318.617C432.291 318.46 432.203 318.247 432.203 318.026C432.203 317.804 432.291 317.592 432.448 317.435C432.604 317.278 432.817 317.19 433.038 317.19H435.545C435.766 317.19 435.979 317.278 436.136 317.435C436.292 317.592 436.38 317.804 436.38 318.026ZM423.848 318.026C423.848 318.247 423.76 318.46 423.603 318.617C423.447 318.773 423.234 318.861 423.012 318.861H420.506C420.284 318.861 420.072 318.773 419.915 318.617C419.758 318.46 419.67 318.247 419.67 318.026C419.67 317.804 419.758 317.592 419.915 317.435C420.072 317.278 420.284 317.19 420.506 317.19H423.012C423.234 317.19 423.447 317.278 423.603 317.435C423.76 317.592 423.848 317.804 423.848 318.026ZM433.933 323.934C433.777 324.09 433.564 324.178 433.343 324.178C433.121 324.178 432.908 324.09 432.752 323.934L430.98 322.162C430.828 322.004 430.743 321.793 430.745 321.574C430.747 321.355 430.835 321.145 430.99 320.99C431.145 320.835 431.354 320.748 431.573 320.746C431.792 320.744 432.004 320.828 432.161 320.98L433.933 322.751C434.011 322.829 434.073 322.921 434.115 323.023C434.157 323.124 434.178 323.233 434.178 323.343C434.178 323.452 434.157 323.561 434.115 323.663C434.073 323.764 434.011 323.856 433.933 323.934ZM425.071 315.072C424.914 315.228 424.702 315.316 424.48 315.316C424.259 315.316 424.046 315.228 423.89 315.072L422.118 313.3C421.962 313.144 421.874 312.931 421.873 312.709C421.873 312.488 421.961 312.275 422.118 312.118C422.275 311.962 422.487 311.874 422.709 311.874C422.93 311.873 423.143 311.961 423.3 312.118L425.071 313.89C425.228 314.047 425.316 314.259 425.316 314.481C425.316 314.702 425.228 314.915 425.071 315.072ZM422.118 323.934C421.962 323.777 421.874 323.565 421.874 323.343C421.874 323.121 421.962 322.909 422.118 322.752L423.891 320.98C423.968 320.9 424.06 320.837 424.162 320.793C424.264 320.749 424.373 320.726 424.484 320.725C424.595 320.724 424.705 320.745 424.808 320.787C424.911 320.829 425.004 320.891 425.082 320.97C425.161 321.048 425.223 321.142 425.265 321.244C425.307 321.347 425.328 321.457 425.327 321.568C425.326 321.679 425.303 321.788 425.259 321.89C425.215 321.992 425.152 322.085 425.072 322.162L423.301 323.934C423.223 324.011 423.131 324.073 423.029 324.115C422.928 324.157 422.819 324.179 422.71 324.179C422.6 324.179 422.491 324.157 422.39 324.115C422.288 324.073 422.196 324.011 422.118 323.934ZM430.98 315.072C430.823 314.915 430.735 314.702 430.735 314.481C430.735 314.259 430.823 314.047 430.98 313.89L432.751 312.118C432.908 311.961 433.12 311.873 433.342 311.873C433.563 311.873 433.776 311.961 433.933 312.118C434.09 312.274 434.178 312.487 434.178 312.708C434.178 312.93 434.09 313.143 433.933 313.299L432.161 315.072C432.004 315.228 431.792 315.316 431.57 315.316C431.349 315.316 431.136 315.228 430.98 315.072Z" fill="#7BCAF4" />
</svg>