<svg width="62" height="56" viewBox="0 0 62 56" fill="none" xmlns="http://www.w3.org/2000/svg">
<path d="M34.2809 11.1172L38.0958 18.0023C38.616 18.9607 40.0032 19.88 41.1737 20.0561L48.0882 21.0928C52.5099 21.7578 53.5503 24.6527 50.3641 27.5084L44.9886 32.3593C44.0782 33.1808 43.5797 34.7652 43.8614 35.8997L45.4004 41.9046C46.6142 46.6577 43.8181 48.4963 39.1579 46.0122L32.677 42.5501C31.5065 41.9242 29.5774 41.9242 28.3852 42.5501L21.9043 46.0122C17.2658 48.4963 14.448 46.6381 15.6618 41.9046L17.2007 35.8997C17.4825 34.7652 16.984 33.1808 16.0736 32.3593L10.6981 27.5084C7.53352 24.6527 8.55226 21.7578 12.974 21.0928L19.8885 20.0561C21.0373 19.88 22.4245 18.9607 22.9447 18.0023L26.7596 11.1172C28.8404 7.3812 32.2218 7.3812 34.2809 11.1172Z" stroke="#EA9532" stroke-width="3" stroke-linecap="round" stroke-linejoin="round"/>
<line x1="31.4749" y1="4.5" x2="31.4749" y2="0.5" stroke="#EA9532" stroke-linecap="round"/>
<line x1="5.29317" y1="23.3234" x2="1.26261" y2="21.5959" stroke="#EA9532" stroke-linecap="round"/>
<line x1="51.1911" y1="55.1645" x2="48.1184" y2="52.6036" stroke="#EA9532" stroke-linecap="round"/>
<line x1="12.7515" y1="52.7042" x2="9.67908" y2="55.2649" stroke="#EA9532" stroke-linecap="round"/>
<line x1="60.6144" y1="22.3887" x2="56.7292" y2="24.0539" stroke="#EA9532" stroke-linecap="round"/>
</svg>
