<svg width="71" height="41" viewBox="0 0 71 41" fill="none" xmlns="http://www.w3.org/2000/svg">
<path d="M11.1 27.8281V6.46542C11.1 3.49962 12.9162 2.78605 15.1335 4.88218L21.2426 10.6577C22.1625 11.5273 23.6721 11.5273 24.5685 10.6577L33.0128 2.65225C33.9327 1.78258 35.4423 1.78258 36.3386 2.65225L44.8065 10.6577C45.7265 11.5273 47.2361 11.5273 48.1324 10.6577L54.2415 4.88218C56.4588 2.78605 58.275 3.49962 58.275 6.46542V27.8504C58.275 34.5402 53.5575 39 46.4813 39H22.8938C16.3836 38.9777 11.1 33.9827 11.1 27.8281Z" stroke="#5932EA" stroke-width="2.775" stroke-linecap="round" stroke-linejoin="round"/>
<line x1="4.39376" y1="12.8688" x2="4.39376" y2="28.1313" stroke="#5932EA" stroke-width="1.3875" stroke-linecap="round"/>
<line x1="66.3687" y1="12.8688" x2="66.3687" y2="28.1313" stroke="#5932EA" stroke-width="1.3875" stroke-linecap="round"/>
<line x1="70.0688" y1="17.4938" x2="70.0687" y2="24.4313" stroke="#5932EA" stroke-width="1.3875" stroke-linecap="round"/>
<line x1="0.69375" y1="17.4938" x2="0.69375" y2="24.4313" stroke="#5932EA" stroke-width="1.3875" stroke-linecap="round"/>
</svg>
