<svg xmlns="http://www.w3.org/2000/svg" width="26" height="26" viewBox="0 0 26 26" fill="none">
    <path d="M23.8333 11.8083V4.44164C23.8333 2.81664 23.14 2.16664 21.4175 2.16664H17.0408C15.3183 2.16664 14.625 2.81664 14.625 4.44164V11.8083C14.625 13.4333 15.3183 14.0833 17.0408 14.0833H21.4175C23.14 14.0833 23.8333 13.4333 23.8333 11.8083Z" stroke="#3170EA" stroke-width="1.77273" stroke-linecap="round" stroke-linejoin="round" />
    <path d="M23.8333 21.5584V19.6084C23.8333 17.9834 23.14 17.3334 21.4175 17.3334H17.0408C15.3183 17.3334 14.625 17.9834 14.625 19.6084V21.5584C14.625 23.1834 15.3183 23.8334 17.0408 23.8334H21.4175C23.14 23.8334 23.8333 23.1834 23.8333 21.5584Z" stroke="#3170EA" stroke-width="1.77273" stroke-linecap="round" stroke-linejoin="round" />
    <path d="M11.3751 14.1916V21.5583C11.3751 23.1833 10.6817 23.8333 8.95925 23.8333H4.58258C2.86008 23.8333 2.16675 23.1833 2.16675 21.5583V14.1916C2.16675 12.5666 2.86008 11.9166 4.58258 11.9166H8.95925C10.6817 11.9166 11.3751 12.5666 11.3751 14.1916Z" stroke="#3170EA" stroke-width="1.77273" stroke-linecap="round" stroke-linejoin="round" />
    <path d="M11.3751 4.44164V6.39164C11.3751 8.01664 10.6817 8.66664 8.95925 8.66664H4.58258C2.86008 8.66664 2.16675 8.01664 2.16675 6.39164V4.44164C2.16675 2.81664 2.86008 2.16664 4.58258 2.16664H8.95925C10.6817 2.16664 11.3751 2.81664 11.3751 4.44164Z" stroke="#3170EA" stroke-width="1.77273" stroke-linecap="round" stroke-linejoin="round" />
</svg>