<svg xmlns="http://www.w3.org/2000/svg" width="26" height="26" viewBox="0 0 26 26" fill="none">
    <path d="M17.3334 8.66666H8.66675V17.3333H17.3334V8.66666Z" stroke="#5028E5" stroke-width="1.77273" stroke-linecap="round" stroke-linejoin="round" />
    <path d="M5.41675 23.8333C7.20425 23.8333 8.66675 22.3708 8.66675 20.5833V17.3333H5.41675C3.62925 17.3333 2.16675 18.7958 2.16675 20.5833C2.16675 22.3708 3.62925 23.8333 5.41675 23.8333Z" stroke="#5028E5" stroke-width="1.77273" stroke-linecap="round" stroke-linejoin="round" />
    <path d="M5.41675 8.66666H8.66675V5.41666C8.66675 3.62916 7.20425 2.16666 5.41675 2.16666C3.62925 2.16666 2.16675 3.62916 2.16675 5.41666C2.16675 7.20416 3.62925 8.66666 5.41675 8.66666Z" stroke="#5028E5" stroke-width="1.77273" stroke-linecap="round" stroke-linejoin="round" />
    <path d="M17.3333 8.66666H20.5833C22.3708 8.66666 23.8333 7.20416 23.8333 5.41666C23.8333 3.62916 22.3708 2.16666 20.5833 2.16666C18.7958 2.16666 17.3333 3.62916 17.3333 5.41666V8.66666Z" stroke="#5028E5" stroke-width="1.77273" stroke-linecap="round" stroke-linejoin="round" />
    <path d="M20.5833 23.8333C22.3708 23.8333 23.8333 22.3708 23.8333 20.5833C23.8333 18.7958 22.3708 17.3333 20.5833 17.3333H17.3333V20.5833C17.3333 22.3708 18.7958 23.8333 20.5833 23.8333Z" stroke="#5028E5" stroke-width="1.77273" stroke-linecap="round" stroke-linejoin="round" />
</svg>