<svg width="1167" height="658" viewBox="0 0 1167 658" fill="none" xmlns="http://www.w3.org/2000/svg">
<mask id="mask0_636_4624" style="mask-type:alpha" maskUnits="userSpaceOnUse" x="0" y="0" width="1167" height="658">
<rect width="1167" height="658" fill="#F0F9F6"/>
</mask>
<g mask="url(#mask0_636_4624)">
<mask id="mask1_636_4624" style="mask-type:alpha" maskUnits="userSpaceOnUse" x="-167" y="-367" width="1679" height="1380">
<rect width="1449.93" height="879" transform="matrix(0.919351 0.393438 0.393438 -0.919351 -167 442.109)" fill="#D9D9D9"/>
</mask>
<g mask="url(#mask1_636_4624)">
<g opacity="0.5">
<path opacity="0.01" d="M-100.271 -347.452C-71.5591 104.874 145.163 884.409 782.362 383.937C1419.56 -116.534 1546.11 246.236 1529.74 490.18" stroke="#5DB276"/>
<path opacity="0.12" d="M-115.194 -319.805C-82.2485 121.011 140.548 882.353 768.167 401.189C1395.79 -79.9742 1524.98 274.582 1511.12 512.006" stroke="#5DB276"/>
<path opacity="0.25" d="M-130.119 -292.156C-92.9387 137.15 135.932 880.299 753.973 418.443C1372.01 -43.412 1503.84 302.93 1492.5 533.833" stroke="#5DB276"/>
<path opacity="0.3" d="M-145.044 -264.508C-103.629 153.288 131.315 878.244 739.777 435.697C1348.24 -6.85082 1482.71 331.277 1473.89 555.66" stroke="#5DB276"/>
<path opacity="0.45" d="M-159.967 -236.861C-114.319 169.426 126.7 876.188 725.583 452.949C1324.47 29.7097 1461.57 359.624 1455.27 577.486" stroke="#5DB276"/>
<path opacity="0.55" d="M-174.894 -209.208C-125.011 185.568 122.082 874.138 711.386 470.206C1300.69 66.2753 1440.44 387.976 1436.65 599.317" stroke="#5DB276"/>
<path opacity="0.65" d="M-189.818 -181.561C-135.7 201.705 117.466 872.082 697.192 487.459C1276.92 102.835 1419.3 416.322 1418.03 621.143" stroke="#5DB276"/>
<path opacity="0.78" d="M-204.742 -153.913C-146.39 217.843 112.85 870.027 682.997 504.712C1253.14 139.397 1398.17 444.669 1399.41 642.97" stroke="#5DB276"/>
<path opacity="0.89" d="M-219.666 -126.266C-157.08 233.98 108.234 867.971 668.803 521.964C1229.37 175.957 1377.03 473.016 1380.79 664.796" stroke="#5DB276"/>
<path d="M-234.592 -98.6177C-167.771 250.118 103.617 865.916 654.607 539.217C1205.6 212.519 1355.9 501.363 1362.18 686.623" stroke="#5DB276"/>
</g>
</g>
<mask id="mask2_636_4624" style="mask-type:alpha" maskUnits="userSpaceOnUse" x="-167" y="-366" width="1680" height="1379">
<rect width="1449.93" height="879" transform="matrix(0.919351 0.393438 0.393438 -0.919351 -166.074 442.505)" fill="#D9D9D9"/>
</mask>
<g mask="url(#mask2_636_4624)">
<g opacity="0.5">
<path opacity="0.01" d="M-99.3453 -347.056C-70.6338 105.27 146.089 884.805 783.287 384.333C1420.49 -116.138 1547.04 246.632 1530.67 490.576" stroke="#5DB276"/>
<path opacity="0.12" d="M-114.268 -319.409C-81.3225 121.407 141.474 882.749 769.094 401.585C1396.71 -79.5782 1525.91 274.978 1512.05 512.401" stroke="#5DB276"/>
<path opacity="0.25" d="M-129.193 -291.76C-92.0127 137.546 136.858 880.694 754.899 418.839C1372.94 -43.0165 1504.77 303.326 1493.43 534.229" stroke="#5DB276"/>
<path opacity="0.3" d="M-144.118 -264.112C-102.704 153.684 132.241 878.64 740.703 436.093C1349.17 -6.45483 1483.63 331.673 1474.81 556.056" stroke="#5DB276"/>
<path opacity="0.45" d="M-159.041 -236.465C-113.393 169.821 127.626 876.584 726.509 453.345C1325.39 30.1052 1462.5 360.02 1456.19 577.882" stroke="#5DB276"/>
<path opacity="0.55" d="M-173.968 -208.812C-124.085 185.964 123.008 874.534 712.312 470.602C1301.62 66.6713 1441.36 388.372 1437.57 599.713" stroke="#5DB276"/>
<path opacity="0.65" d="M-188.893 -181.166C-134.775 202.101 118.391 872.477 698.117 487.854C1277.84 103.231 1420.23 416.717 1418.96 621.539" stroke="#5DB276"/>
<path opacity="0.78" d="M-203.817 -153.517C-145.465 218.239 113.775 870.423 683.923 505.108C1254.07 139.793 1399.09 445.065 1400.34 643.366" stroke="#5DB276"/>
<path opacity="0.89" d="M-218.741 -125.87C-156.154 234.376 109.16 868.367 669.729 522.36C1230.3 176.353 1377.96 473.412 1381.72 665.192" stroke="#5DB276"/>
<path d="M-233.666 -98.2217C-166.845 250.514 104.543 866.312 655.533 539.613C1206.52 212.915 1356.82 501.759 1363.1 687.019" stroke="#5DB276"/>
</g>
</g>
<mask id="mask3_636_4624" style="mask-type:alpha" maskUnits="userSpaceOnUse" x="-278" y="-321" width="1810" height="1369">
<rect x="-277.249" y="-114.346" width="1677" height="1170.45" transform="rotate(-7.07351 -277.249 -114.346)" fill="#D9D9D9"/>
</mask>
<g mask="url(#mask3_636_4624)">
<g opacity="0.5">
<path opacity="0.01" d="M-440.062 915.06C-271.834 351.368 205.356 -555.045 768.295 328.849C1331.23 1212.74 1582.08 800.923 1637.13 484.527" stroke="#5DB276"/>
<path opacity="0.12" d="M-448.454 874.12C-278.947 326.702 199.571 -554.226 757.593 301.403C1315.61 1157.03 1566.94 756.678 1622.85 449.547" stroke="#5DB276"/>
<path opacity="0.25" d="M-456.848 833.175C-286.063 302.032 193.783 -553.412 746.888 273.953C1299.99 1101.32 1551.8 712.429 1608.57 414.564" stroke="#5DB276"/>
<path opacity="0.3" d="M-465.243 792.232C-293.179 277.365 187.995 -552.596 736.183 246.505C1284.37 1045.61 1536.67 668.182 1594.29 379.583" stroke="#5DB276"/>
<path opacity="0.45" d="M-473.636 751.29C-300.294 252.698 182.209 -551.779 725.479 219.057C1268.75 989.893 1521.53 623.936 1580.01 344.602" stroke="#5DB276"/>
<path opacity="0.55" d="M-482.032 710.341C-307.41 228.024 176.42 -550.969 714.774 191.603C1253.13 934.174 1506.39 579.682 1565.73 309.615" stroke="#5DB276"/>
<path opacity="0.65" d="M-490.425 669.4C-314.525 203.357 170.634 -550.151 704.071 164.156C1237.51 878.463 1491.25 535.436 1551.45 274.634" stroke="#5DB276"/>
<path opacity="0.78" d="M-498.819 628.455C-321.641 178.688 164.846 -549.337 693.366 136.706C1221.89 822.749 1476.11 491.188 1537.16 239.652" stroke="#5DB276"/>
<path opacity="0.89" d="M-507.213 587.514C-328.756 154.021 159.059 -548.519 682.662 109.259C1206.26 767.038 1460.98 446.942 1522.88 204.671" stroke="#5DB276"/>
<path d="M-515.607 546.572C-335.871 129.355 153.272 -547.702 671.957 81.8123C1190.64 711.327 1445.84 402.696 1508.6 169.691" stroke="#5DB276"/>
</g>
</g>
<g opacity="0.5">
<path opacity="0.01" d="M-438.905 914.917C-270.678 351.224 206.512 -555.188 769.452 328.705C1332.39 1212.6 1583.23 800.779 1638.29 484.383" stroke="#5DB276"/>
<path opacity="0.12" d="M-447.298 873.976C-277.791 326.558 200.727 -554.37 758.749 301.259C1316.77 1156.89 1568.1 756.534 1624.01 449.404" stroke="#5DB276"/>
<path opacity="0.25" d="M-455.691 833.033C-284.906 301.89 194.94 -553.554 748.045 273.811C1301.15 1101.18 1552.96 712.287 1609.73 414.422" stroke="#5DB276"/>
<path opacity="0.3" d="M-464.086 792.091C-292.022 277.224 189.152 -552.737 737.34 246.364C1285.53 1045.46 1537.82 668.041 1595.45 379.442" stroke="#5DB276"/>
<path opacity="0.45" d="M-472.479 751.149C-299.137 252.556 183.366 -551.92 726.637 218.916C1269.91 989.752 1522.69 623.794 1581.17 344.461" stroke="#5DB276"/>
<path opacity="0.55" d="M-480.874 710.199C-306.253 227.881 177.578 -551.111 715.932 191.461C1254.29 934.032 1507.55 579.54 1566.88 309.472" stroke="#5DB276"/>
<path opacity="0.65" d="M-489.269 669.257C-313.369 203.214 171.79 -550.295 705.227 164.013C1238.66 878.32 1492.41 535.293 1552.6 274.491" stroke="#5DB276"/>
<path opacity="0.78" d="M-497.662 628.314C-320.483 178.546 166.004 -549.478 694.523 136.565C1223.04 822.608 1477.27 491.046 1538.32 239.51" stroke="#5DB276"/>
<path opacity="0.89" d="M-506.056 587.372C-327.599 153.88 160.216 -548.661 683.819 109.118C1207.42 766.896 1462.13 446.8 1524.04 204.53" stroke="#5DB276"/>
<path d="M-514.45 546.429C-334.714 129.212 154.429 -547.844 673.115 81.6698C1191.8 711.184 1447 402.553 1509.76 169.549" stroke="#5DB276"/>
</g>
</g>
</svg>
