<svg width="1167" height="490" viewBox="0 0 1167 490" fill="none" xmlns="http://www.w3.org/2000/svg">
<mask id="mask0_636_4870" style="mask-type:alpha" maskUnits="userSpaceOnUse" x="0" y="0" width="1167" height="490">
<rect width="1167" height="490" fill="#F0F9F6"/>
</mask>
<g mask="url(#mask0_636_4870)">
<mask id="mask1_636_4870" style="mask-type:alpha" maskUnits="userSpaceOnUse" x="-194" y="-253" width="1699" height="1425">
<rect width="1455.09" height="1017.1" transform="matrix(-0.949225 -0.314599 -0.311973 0.950091 1504.52 204.771)" fill="#D9D9D9"/>
</mask>
<g mask="url(#mask1_636_4870)">
<g opacity="0.5">
<path opacity="0.01" d="M1469.74 1109.7C1421.1 600.436 1167.06 -253.433 540 405.213C-87.0629 1063.86 -231.439 670.152 -225.244 390.968" stroke="#5DB276"/>
<path opacity="0.12" d="M1483.74 1076.2C1431.29 580.601 1171.85 -251.756 553.707 383.614C-64.4359 1018.98 -211.145 634.975 -207.232 363.549" stroke="#5DB276"/>
<path opacity="0.25" d="M1497.74 1042.7C1441.47 560.764 1176.64 -250.081 567.413 362.013C-41.8086 974.107 -190.851 599.796 -189.219 336.128" stroke="#5DB276"/>
<path opacity="0.3" d="M1511.75 1009.2C1451.66 540.928 1181.42 -248.405 581.122 340.413C-19.1799 929.231 -170.555 564.617 -171.205 308.708" stroke="#5DB276"/>
<path opacity="0.45" d="M1525.75 975.696C1461.85 521.092 1186.21 -246.73 594.827 318.813C3.44594 884.356 -150.262 529.439 -153.194 281.288" stroke="#5DB276"/>
<path opacity="0.55" d="M1539.75 942.189C1472.04 501.25 1191 -245.06 608.536 297.207C26.0762 839.474 -129.965 494.255 -135.178 253.862" stroke="#5DB276"/>
<path opacity="0.65" d="M1553.76 908.689C1482.23 481.416 1195.78 -243.383 622.244 275.608C48.7044 794.599 -109.67 459.078 -117.165 226.443" stroke="#5DB276"/>
<path opacity="0.78" d="M1567.76 875.188C1492.42 461.58 1200.57 -241.707 635.951 254.008C71.3316 749.724 -89.376 423.9 -99.1524 199.023" stroke="#5DB276"/>
<path opacity="0.89" d="M1581.76 841.687C1502.6 441.744 1205.36 -240.032 649.657 232.408C93.9585 704.848 -69.0823 388.721 -81.1403 171.603" stroke="#5DB276"/>
<path d="M1595.77 808.185C1512.79 421.908 1210.14 -238.356 663.365 210.808C116.587 659.972 -48.7869 353.543 -63.1266 144.183" stroke="#5DB276"/>
</g>
</g>
</g>
</svg>
