<svg width="26" height="26" viewBox="0 0 26 26" fill="none" xmlns="http://www.w3.org/2000/svg">
<path opacity="0.4" d="M18.4562 0H7.55677C2.82241 0 0 2.821 0 7.553V18.434C0 23.179 2.82241 26 7.55677 26H18.4432C23.1775 26 26 23.179 26 18.447V7.553C26.013 2.821 23.1906 0 18.4562 0Z" fill="#F1F7F3"/>
<path d="M13.735 8.42403L8.94583 13.696C8.76499 13.8962 8.58999 14.2905 8.55499 14.5635L8.33916 16.5291C8.26333 17.2389 8.75333 17.7242 9.42999 17.6029L11.3083 17.2692C11.5708 17.2207 11.9383 17.0205 12.1192 16.8142L16.9083 11.5423C17.7367 10.6323 18.11 9.5949 16.8208 8.32696C15.5375 7.07116 14.5633 7.51403 13.735 8.42403Z" stroke="#5DB276" stroke-width="1.05" stroke-miterlimit="10" stroke-linecap="round" stroke-linejoin="round"/>
<path d="M12.9359 9.30376C13.1867 10.9782 14.4934 12.2582 16.115 12.4281" stroke="#5DB276" stroke-width="1.05" stroke-miterlimit="10" stroke-linecap="round" stroke-linejoin="round"/>
<path d="M7.75 19.5868H18.25" stroke="#5DB276" stroke-width="1.05" stroke-miterlimit="10" stroke-linecap="round" stroke-linejoin="round"/>
</svg>
