<svg width="730" height="564" viewBox="0 0 730 564" fill="none" xmlns="http://www.w3.org/2000/svg">
    <path fill-rule="evenodd" clip-rule="evenodd" d="M249.238 219.38C268.671 220.957 272.947 247.664 287.776 260.298C305.399 275.313 340.393 275.728 342.415 298.767C344.407 321.471 314.557 332.571 295.176 344.621C281.203 353.308 265.592 354.82 249.238 356.697C229.315 358.984 207.571 368.326 191.364 356.535C174.049 343.939 167.026 319.997 169.605 298.767C171.976 279.245 189.941 267.388 203.88 253.491C217.805 239.611 229.624 217.789 249.238 219.38Z" fill="#E3F7FF" fill-opacity="0.5"/>
    <path fill-rule="evenodd" clip-rule="evenodd" d="M630.944 25.7703C650.615 33.9664 669.877 49.4989 672.826 71.9975C675.55 92.7843 656.372 109.313 644.197 126.892C635.815 138.995 626.231 148.482 614.298 156.506C598.613 167.053 583.218 183.132 565.674 179.695C546.418 175.922 531.377 158.809 525.515 139.113C519.874 120.159 528.845 100.256 536.351 81.1615C544.196 61.2058 551.008 39.1931 568.92 28.7044C588.22 17.4024 611.381 17.6191 630.944 25.7703Z" fill="#E3F7FF" fill-opacity="0.6"/>
    <path d="M537.88 212.523L551.158 200.871C557.842 209.271 570.777 227.101 569.042 231.22C567.308 235.339 563.984 234.743 562.539 233.93C556.126 229.414 542.433 219.839 538.964 217.671C535.496 215.504 536.797 213.336 537.88 212.523Z" fill="#3CB7D8"/>
    <path d="M633.534 228.781L566.333 317.389L568.229 318.744L635.16 229.865L633.534 228.781Z" fill="#8298BF"/>
    <path d="M586.927 210.084L637.869 243.685L636.515 245.31L585.843 211.439L586.927 210.084Z" fill="#8298BF"/>
    <path d="M38.5445 353.699C54.8029 373.426 31.0476 384.319 17.1377 387.3C8.10526 385.493 -7.19574 389.359 3.85994 419.275C14.9156 449.19 52.0027 458.475 69.1643 459.379C78.7387 459.288 101.898 454.555 117.939 436.346C133.981 418.137 124.623 399.494 117.939 392.448C106.92 385.764 92.3596 363.617 122.275 328.499C159.669 284.601 121.733 266.446 105.475 262.382C92.4679 259.13 85.0614 213.336 82.9839 190.845C78.558 176.574 64.7746 152.313 45.0478 169.438C20.3893 190.845 36.1058 197.619 16.3248 236.639C0.500003 267.855 5.39557 302.576 9.82146 316.034C12.6215 320.37 22.2862 333.973 38.5445 353.699Z" fill="#5DB276"/>
    <path d="M91.6554 308.176C84.7185 309.694 73.5906 323.802 68.8938 330.667C68.6228 334.37 68.2434 340.747 68.8938 336.628C69.5441 332.51 83.9779 319.376 91.1135 313.325C94.1845 310.976 98.5923 306.659 91.6554 308.176Z" fill="#4B678F"/>
    <path d="M613.21 446.101C603.889 428.326 591.984 438.514 587.197 445.831C581.597 455.676 573.323 469.676 585.029 446.914C596.735 424.153 611.043 436.708 616.733 445.831C619.443 453.327 622.532 463.877 613.21 446.101Z" fill="#83809F"/>
    <path d="M643.56 449.896C631.854 411.309 608.333 433.276 598.036 449.083L595.056 448.269C624.104 405.781 641.121 430.566 645.998 448.269L643.56 449.896Z" fill="#83809F"/>
    <path d="M569.855 447.456L582.32 529.29H640.037L649.792 448.811L569.855 447.456Z" fill="#62BACE"/>
    <path d="M569.042 444.205L569.855 447.456L649.792 448.811L651.418 444.205H569.042Z" fill="#8A889D"/>
    <path d="M648.979 454.772H570.939L571.481 458.295H648.708L648.979 454.772Z" fill="#8FE0F1"/>
    <path d="M66.9966 282.705V486.476L69.9773 486.747V282.705C68.6766 279.67 67.4482 281.44 66.9966 282.705Z" fill="#4B678F"/>
    <path d="M49.3832 404.642C56.9704 408.328 64.8286 419.185 67.8093 424.153L68.6221 418.733C66.6711 411.796 54.9832 404.462 49.3832 401.662C46.2218 401.12 41.7959 400.957 49.3832 404.642Z" fill="#4B678F"/>
    <path d="M104.39 485.392H33.1245C33.1245 491.173 33.3955 505.119 34.4794 514.657C35.5633 524.195 43.4215 528.386 47.2151 529.29H87.59C98.6457 527.772 103.397 518.902 104.39 514.657V485.392Z" fill="#FFC25B"/>
    <path d="M104.39 489.186H33.1245L33.2208 492.438H104.39V489.186Z" fill="#FFE59B"/>
    <rect x="39.02" y="529.29" width="690.98" height="2.16778" rx="1.08389" fill="#7F98B6"/>
    <rect x="215.153" y="546.09" width="127.357" height="2.16778" rx="1.08389" fill="#7F98B6"/>
    <rect x="305.657" y="559.097" width="172.88" height="2.16778" rx="1.08389" fill="#7F98B6"/>
    <rect x="375.026" y="546.09" width="210.817" height="2.16778" rx="1.08389" fill="#7F98B6"/>
    <rect x="534.9" y="561.265" width="130.609" height="2.16778" rx="1.08389" fill="#7F98B6"/>
    <rect x="644.915" y="546.09" width="62.8656" height="2.16778" rx="1.08389" fill="#7F98B6"/>
    <circle cx="234.199" cy="156.239" r="28.8005" fill="#42B3EF" fill-opacity="0.7"/>
    <circle cx="234.391" cy="156.431" r="32.6406" stroke="#706D79" stroke-width="1.92003"/>
    <path d="M232.664 139.343V160.08L245.72 159.388" stroke="white" stroke-width="1.53603"/>
    <path d="M457.13 320.099H391.013C388.629 320.099 388.755 322.628 389.116 323.892L391.013 325.247H484.77L486.395 320.099H457.13Z" fill="#ABBAC1"/>
    <path d="M428.949 304.382V320.912L455.776 321.996V304.382H428.949Z" fill="#7A86A0"/>
    <path d="M558.203 333.648H271.244C272.327 336.683 275.489 337.442 276.934 337.442H555.765L558.203 333.648Z" fill="#EC934F"/>
    <path d="M556.577 324.976V326.06L561.455 333.648H271.243C268.425 326.711 272.779 324.254 275.308 323.893H556.307L556.577 324.976Z" fill="#FFC454"/>
    <path d="M260.947 538.503L280.186 347.196L281.27 346.112L290.483 345.299L271.515 515.741L266.908 543.109L261.218 541.483L260.947 538.503Z" fill="#DB704C"/>
    <path d="M540.59 373.48H289.399L271.514 539.857L266.908 543.109L288.857 347.196H280.186L280.999 337.441H295.902L293.463 363.725H551.7L540.59 373.48Z" fill="#B74C3C"/>
    <path d="M293.734 337.441L290.482 366.706H538.693H541.674L554.951 365.351L554.681 337.441H293.734Z" fill="#DB704C"/>
    <path d="M600.746 540.942L595.055 543.38L579.881 420.63L589.365 420.088L600.746 540.942Z" fill="#D96E4A"/>
    <path d="M591.804 542.567L577.172 420.901L581.236 420.359L595.056 543.38L591.804 542.567Z" fill="#B74C3C"/>
    <path d="M496.422 305.467H383.155C379.036 305.467 378.007 301.131 378.007 298.963V234.743C378.007 231.057 381.439 229.594 383.155 229.323H495.88C500.866 229.323 502.473 232.936 502.654 234.743V299.234C502.22 303.786 498.318 305.286 496.422 305.467Z" fill="#ABBAC1"/>
    <rect x="381.529" y="232.846" width="117.602" height="68.827" rx="5.41945" fill="white"/>
    <path fill-rule="evenodd" clip-rule="evenodd" d="M386.933 232.846C383.947 232.855 381.529 235.278 381.529 238.266V296.254C381.529 299.247 383.956 301.673 386.949 301.673H493.712C496.705 301.673 499.131 299.247 499.131 296.254V290.021H403.478L387.491 232.846H386.933Z" fill="#E2EAED"/>
    <rect x="422.717" y="272.408" width="39.562" height="3.79362" rx="1.89681" fill="#CED8DE"/>
    <rect x="422.717" y="278.911" width="39.562" height="3.79362" rx="1.89681" fill="#CED8DE"/>
    <path d="M517.828 530.644C526.499 526.959 527.764 517.186 527.312 512.76L542.758 504.631C544.474 508.876 548.231 518.505 549.532 523.057C550.833 527.609 548.99 530.012 547.906 530.644L520.538 540.128C511.217 544.464 507.983 543.561 507.531 542.567C507.351 540.128 509.157 534.329 517.828 530.644Z" fill="#24274A"/>
    <path d="M428.678 532.27C442.552 531.403 448.008 519.806 449.001 514.115L467.699 516.825C467.337 520.799 466.669 529.994 466.886 534.98C467.102 539.966 464.627 541.574 463.363 541.754C460.924 542.296 450.573 543.38 428.678 543.38C406.784 543.38 419.556 535.974 428.678 532.27Z" fill="#24274A"/>
    <path d="M526.499 421.714C524.241 421.624 519.617 421.443 519.183 421.443L514.577 449.624L511.867 475.908C513.944 480.334 527.746 482.249 530.564 493.522C533.382 504.794 526.861 516.464 527.854 515.199L545.738 507.07L537.338 468.592L526.499 421.714Z" fill="#26242F"/>
    <path d="M525.416 467.779L538.151 510.593C537.158 511.315 534.087 513.194 529.751 514.928C525.416 516.662 523.97 514.386 523.79 513.031L510.783 475.366L518.912 467.779C523.248 462.576 525.054 465.611 525.416 467.779Z" fill="#3B345D"/>
    <path d="M611.043 362.642H580.423L573.649 412.772H594.514C618.576 405.618 615.559 376.371 611.043 362.642Z" fill="#26242F"/>
    <path d="M579.068 399.765L584.217 362.642H597.494L591.533 383.236C590.63 386.759 587.793 394.671 583.675 398.139C579.556 401.608 578.887 400.669 579.068 399.765Z" fill="#3B345D"/>
    <path d="M573.92 362.642L572.836 357.493L535.442 389.197L488.292 396.784L446.834 511.948L446.292 516.554L466.615 518.722C470.95 520.456 472.395 517.999 472.576 516.554L495.067 429.843L507.802 465.34L513.493 422.527C509.808 422.31 508.886 418.281 508.886 416.294C509.103 413.476 511.325 412.952 512.409 413.043H566.874L571.752 375.648L573.92 362.642Z" fill="#26242F"/>
    <path d="M542.758 365.623C547.528 366.274 553.055 357.765 555.223 353.429L562.268 350.178L573.378 360.204L567.146 384.591C565.628 396.731 560.733 398.682 558.475 398.14L543.842 399.766C535.261 400.037 514.415 401.5 499.674 405.185C484.933 408.87 482.151 423.882 482.602 430.928L479.893 442.037L466.073 487.29C463.905 499.213 457.763 509.239 454.963 512.761H447.376L446.834 511.948L449.273 495.419L458.757 441.495L466.344 405.727C466.994 397.49 477.454 391.456 482.602 389.469C500.667 381.249 537.989 364.973 542.758 365.623Z" fill="#3B345D"/>
    <path d="M548.448 185.426L548.719 185.155L549.803 184.071L563.081 184.342L577.714 197.349L570.668 210.898L579.61 219.298L586.385 233.388L564.165 238.266L564.707 225.801C565.357 222.983 561.004 222.82 558.745 223.091C549.424 224.175 547.636 212.704 547.907 206.833V191.659L548.448 185.426Z" fill="#FFBE9E"/>
    <path d="M563.081 174.316C553.11 174.099 549.171 181.632 548.449 185.426C552.784 184.071 553.326 187.865 558.204 194.368C562.106 199.571 566.875 199.787 568.772 199.245C571.752 198.703 575.654 203.689 570.669 206.291C565.683 208.892 567.327 213.336 568.772 215.233C580.965 228.51 586.656 218.213 590.991 213.878C594.46 210.409 592.256 200.149 590.721 195.452C590.54 194.097 590.666 191.387 592.617 191.387C594.568 191.387 596.14 190.665 596.682 190.303C598.669 188.497 601.451 182.716 596.682 174.045C591.913 165.374 584.578 172.058 581.507 176.484C579.52 175.852 573.053 174.533 563.081 174.316Z" fill="#6B3D2A"/>
    <path d="M567.958 305.467C568.175 303.949 569.675 303.57 570.397 303.57L560.1 288.666V272.95L555.765 270.782L548.177 284.06L552.242 302.757L553.868 321.454C553.868 326.603 553.434 338.796 551.7 346.384C549.966 353.971 552.603 355.145 554.139 354.784L561.455 355.055C563.532 339.158 567.742 306.984 567.958 305.467Z" fill="#4A4CC5"/>
    <path d="M585.301 542.839L567.688 421.443L573.92 419.817L590.72 542.839H585.301Z" fill="#A6B5BC"/>
    <path d="M623.508 422.256H572.565V412.772H622.153C629.523 415.807 626.127 420.359 623.508 422.256Z" fill="#8097B6"/>
    <path d="M576.901 419.817L577.713 412.772H611.585L610.501 419.817H576.901Z" fill="#A6B5BC"/>
    <path d="M573.378 362.642L566.875 413.585H573.378L580.152 362.913L622.153 362.642L613.482 422.256L630.553 543.651H636.785L619.714 422.256L621.069 413.585L628.385 362.913H642.476L643.289 362.1L640.85 359.932L647.082 307.092L648.166 303.57H570.668L571.481 305.467L564.436 355.055V362.642H573.378Z" fill="#A6B5BC"/>
    <path d="M541.945 542.297L559.829 420.901L566.061 419.817L547.635 542.297H541.945Z" fill="#79889F"/>
    <path d="M453.879 311.157C457.348 312.674 463.634 313.415 466.344 313.596C470.408 315.854 476.099 320.532 466.344 321.183C456.589 321.833 452.163 319.828 451.169 318.744C450.085 317.877 445.118 319.105 442.769 319.828C426.511 324.38 435.272 317.57 441.685 313.596C444.305 312.15 450.411 309.639 453.879 311.157Z" fill="#FFBE9E"/>
    <path d="M502.654 543.381H496.422L503.738 494.064L513.222 422.798L508.886 419.817H559.829L559.016 422.256H520.267L502.654 543.381Z" fill="#7684A1"/>
    <path d="M640.037 358.518L646.131 305.227C649.25 300.318 652.501 304.924 651.96 307.725L645.336 359.629C641.944 366.068 640.39 361.571 640.037 358.518Z" fill="#CBD8E0"/>
    <path d="M577.442 233.659L546.551 243.414L532.732 275.118L515.931 308.99C502.654 309.26 475.015 309.802 470.679 309.802C466.343 309.802 465.079 311.428 464.989 312.241V322.538L500.215 324.706C504.822 324.706 515.173 324.814 519.725 325.248C524.277 325.681 526.861 323.08 527.583 321.725L543.029 295.983L555.764 274.305C555.493 280.989 554.951 295.224 554.951 298.693C554.951 302.161 556.758 306.099 557.661 307.635V318.745C556.939 323.351 555.656 333.919 556.306 339.338C556.957 344.758 558.745 341.597 559.558 339.338L561.726 327.145L564.977 309.802L567.416 303.57L568.229 303.299L570.397 303.57L620.256 303.841L616.733 286.499C614.023 273.944 608.279 247.37 606.978 241.517C605.678 235.664 598.126 233.659 594.513 233.388L577.442 233.659Z" fill="#6777E9"/>
    <path d="M573.92 305.499V308.267L566.851 360.842C563.005 365.27 561.29 361.58 560.913 359.182L567.699 305.499C569.735 301.515 572.694 303.839 573.92 305.499Z" fill="#79889B"/>
    <path d="M511.867 412.772C506.882 412.989 507.803 417.559 508.887 419.817L557.391 422.256H572.565L573.649 412.772C555.133 412.682 516.853 412.555 511.867 412.772Z" fill="#74849E"/>
    <path d="M608.604 273.221L613.211 303.841H616.191L608.604 273.221Z" fill="#4A4CC5"/>
    <path d="M136.029 527.122C128.659 523.004 137.294 512.399 142.532 507.612L156.894 515.471C157.617 517.548 159.495 521.703 161.229 521.703C162.964 521.703 174.417 529.832 179.927 533.897C189.465 543.868 177.398 543.832 170.172 542.568C161.862 539.135 143.4 531.241 136.029 527.122Z" fill="#252549"/>
    <path d="M217.05 526.038L218.134 520.89C225.089 517.728 238.944 512.869 238.727 518.722C238.511 524.575 242.25 526.038 244.147 526.038L260.947 531.728C265.373 533.806 271.732 538.611 261.76 541.212C249.295 544.464 230.869 541.483 220.843 541.212C212.822 540.996 214.972 531.006 217.05 526.038Z" fill="#252549"/>
    <path d="M242.521 517.367V514.657L234.121 505.986L225.992 456.398L224.908 396.513L211.089 321.183L204.314 299.505V339.067L207.566 386.487L209.463 419.546L211.63 460.734L214.069 504.089L215.153 515.741C214.286 523.111 217.321 522.967 218.947 521.973C222.74 521.341 231.574 520.022 236.56 519.806C241.546 519.589 242.612 518.089 242.521 517.367Z" fill="#252330"/>
    <path d="M163.668 316.847C161.067 304.491 161.862 290.563 162.585 285.144L233.85 287.04L236.289 316.305L238.728 344.758L241.167 379.713L242.521 395.7V407.894V514.657L223.824 516.554L223.553 513.302L216.779 447.456C215.478 441.603 215.695 432.191 215.966 428.217L216.779 410.875V390.281L213.527 367.79L210.818 344.758L206.211 313.054L208.379 341.235L210.276 381.881C211.576 388.818 209.734 402.113 208.65 407.894L191.037 450.708L163.397 513.302C162.097 519.155 159.784 519.174 158.791 518.451C154.275 515.922 144.321 510.484 140.636 508.967C136.95 507.449 137.836 502.735 138.739 500.567L141.72 490.812L172.61 401.12C172.52 398.139 172.285 390.552 172.068 384.049C171.852 377.545 170.352 360.384 169.63 352.616L168.546 342.048L167.191 335.003C167.101 334.099 166.27 329.204 163.668 316.847Z" fill="#3B355B"/>
    <path d="M293.461 309.531L290.48 304.112L287.229 302.757L280.725 308.989C281.267 309.621 282.351 311.645 282.351 314.68C282.351 317.715 285.242 319.196 286.687 319.557H297.526C300.777 315.655 305.745 317.931 307.823 319.557H315.952L304.3 309.531C303.216 309.26 300.344 309.043 297.526 310.344C294.708 311.645 293.642 310.344 293.461 309.531Z" fill="#FFBE9E"/>
    <path d="M245.231 250.459L240.353 236.91L256.612 222.278C257.605 223.633 259.701 227.318 260.134 231.22C260.568 235.122 261.038 238.085 261.218 239.078V244.227L277.748 281.079L282.354 294.898C285.389 297.933 291.567 302.757 291.025 303.299L282.354 309.802C277.802 313.487 275.76 310.976 275.309 309.26L257.967 278.098L245.231 250.459Z" fill="#3DAC8B"/>
    <path d="M247.941 245.04C247.29 240.704 256.16 236.911 260.676 235.556L270.702 259.13L280.457 278.64C282.986 284.15 289.833 296.416 291.567 300.318C293.735 305.196 288.316 305.738 285.335 307.634C282.95 309.152 280.548 306.37 278.831 305.196L270.702 294.086L253.902 260.756C252.186 257.324 248.591 249.375 247.941 245.04Z" fill="#6DCB98"/>
    <path d="M251.735 216.859L250.38 217.672L254.986 225.801L258.78 223.633C262.248 224.717 267.451 224.175 269.348 223.362C271.245 221.826 275.255 217.563 276.122 212.794C276.989 208.025 273.593 209.542 271.786 210.897L265.825 215.504C264.741 215.865 262.682 215.721 263.115 212.252C263.549 208.784 262.031 209.723 261.219 210.626L257.425 214.42L251.735 216.859Z" fill="#FFBE9E"/>
    <path d="M160.417 278.37L162.043 204.936L170.714 197.891L182.908 184.613L209.463 218.756L229.515 211.982L231.683 206.833L233.579 187.052L240.625 211.982L254.444 210.085L256.07 214.962L251.193 217.13L236.289 219.84L233.579 214.962L234.663 238.537V248.021L211.089 261.84L185.617 262.653L171.527 255.066L171.256 285.415L225.179 284.06L235.747 283.247C235.964 288.016 231.502 290.293 229.244 290.835C212.173 292.37 175.754 295.062 166.649 293.544C157.545 292.027 158.701 282.796 160.417 278.37Z" fill="#3DAC8B"/>
    <path d="M174.508 155.077C181.444 150.742 191.127 150.019 195.101 150.2L214.34 149.116C217.05 150.742 224.421 154.264 232.225 155.348C240.029 156.432 243.064 163.748 243.605 167.271L250.109 192.471L254.715 210.626C252.548 211.168 247.291 212.523 243.605 213.607C239.92 214.691 238.638 213.698 238.457 213.065L233.579 188.949V212.252C230.599 213.607 222.795 217.076 215.424 220.111C208.054 223.145 202.056 219.027 199.979 216.588C195.09 208.42 187.056 194.782 183.038 187.352C186.65 197.404 193.181 219.588 196.727 232.033C201.785 230.498 214.449 226.397 224.637 222.278C234.826 218.16 245.683 215.865 249.838 215.233C253.09 217.943 254.444 223.362 255.528 225.53C256.395 227.264 255.89 230.588 255.528 232.033C236.199 239.079 196.077 253.549 190.224 255.066C184.371 256.583 180.74 254.976 179.656 253.982L176.404 248.292L164.211 217.672C162.585 211.168 158.954 196.969 157.436 192.2C155.919 187.431 155.901 179.013 156.081 175.4L157.436 171.606C160.236 167.903 167.571 159.413 174.508 155.077Z" fill="#6DCB98"/>
    <path d="M203.772 259.943L234.663 248.021L235.476 283.247C234.175 284.548 224.456 285.776 219.759 286.228L175.049 287.041C170.713 287.908 169.449 285.415 169.359 284.06C169.178 273.944 169.088 253.603 170.171 253.169C171.255 252.735 178.03 256.421 181.281 258.317C188.218 264.387 199.166 261.93 203.772 259.943Z" fill="#6DCB98"/>
    <path d="M218.405 279.454V261.027L223.553 258.589C231.357 253.169 232.766 257.956 232.495 261.027L233.037 278.37C232.315 279.002 229.623 280.483 224.637 281.35C219.651 282.217 218.405 280.447 218.405 279.454Z" fill="#79DB9A"/>
    <path d="M199.437 161.851C208.108 167.921 218.405 166.367 222.469 164.832C225.071 162.881 225.902 166.548 225.992 168.625C228.377 189.219 222.65 197.258 219.489 198.703C217.321 200.329 208.812 198.757 192.12 179.464C171.256 155.348 188.598 154.264 199.437 161.851Z" fill="#79DB9A"/>
    <path d="M211.36 130.69C211.143 133.291 212.443 144.69 214.882 149.116C212.263 147.851 206.97 145.214 206.753 144.78C206.536 144.347 201.605 141.89 199.166 140.716L199.437 132.045C202.327 131.141 211.576 128.088 211.36 130.69Z" fill="#FFBE9E"/>
    <path d="M193.475 134.754C194.342 136.271 193.114 145.322 192.391 149.657C193.656 151.103 198.786 154.968 209.192 158.87C219.597 162.772 216.96 155.98 214.34 152.096L214.882 149.115L212.985 147.219L201.876 135.296C216.4 143.1 222.018 135.115 223.011 130.147V109.282L222.74 103.05L222.469 97.0887L204.314 94.6499L186.972 116.057C188.779 121.657 192.608 133.236 193.475 134.754Z" fill="#FFBE9E"/>
    <path d="M195.1 127.437C195.534 128.954 194.197 133.67 193.475 135.296C188.922 131.61 181.823 116.418 178.842 109.282C176.458 102.129 180.377 94.7397 182.635 92.4815C189.952 87.5137 209.787 79.15 223.01 85.4366C236.234 91.7232 225.901 100.159 220.029 103.591C217.645 105.542 205.668 105.127 199.978 104.675C197.593 104.459 196.997 106.934 196.997 108.198V114.701C196.997 117.086 196.094 117.321 195.642 117.14C183.719 112.805 190.313 122.198 195.1 127.437Z" fill="#282948"/>
    <path d="M353.348 308.447C355.299 309.748 355.245 312.06 354.974 313.054L344.677 313.867C344.497 311.428 344.19 306.171 344.406 304.654C344.623 303.136 348.652 301.853 350.639 301.402C349.338 295.115 354.794 294.989 357.684 295.712C357.901 293.327 359.219 292.189 359.852 291.918C365.705 291.051 365 294.086 363.916 295.712C359.798 298.096 360.032 299.776 360.665 300.318C365.434 304.22 360.484 306.279 357.413 306.821C355.245 306.821 351.397 307.147 353.348 308.447Z" fill="#3E7E4A"/>
    <path d="M326.793 308.177C332.212 307.364 329.503 313.596 331.129 314.138H339.8L343.864 311.97L334.651 300.589H327.335C319.314 294.303 320.199 299.234 321.645 302.486C320.832 305.557 321.232 309.011 326.793 308.177Z" fill="#316151"/>
    <path d="M337.903 306.28C335.518 308.881 337.09 311.88 338.174 313.054C341.155 314.86 347.658 317.335 349.826 312.783C351.993 308.231 348.019 305.467 345.761 304.654C345.978 297.934 342.961 297.337 341.426 297.879C339.98 298.963 337.253 299.83 337.903 294.628C338.553 289.425 335.103 289.028 333.296 289.479C332.122 290.021 330.207 291.322 331.942 292.189C333.676 293.056 334.29 295.26 334.38 296.254C332.845 297.428 330.641 300.21 334.109 301.944C337.578 303.678 338.084 305.557 337.903 306.28Z" fill="#6FAF41"/>
    <path d="M354.703 312.512H331.942C325.872 315.33 327.425 321.273 328.961 323.893H357.684C361.369 317.606 357.232 313.686 354.703 312.512Z" fill="#E2EAED"/>
    <rect x="341.425" y="187.351" width="31.062" height="20.5654" rx="2.73825" stroke="#62BACE" stroke-width="1.08389"/>
    <path d="M357.381 201.04L343.158 188.045C342.936 187.842 343.082 187.471 343.383 187.475L371.54 187.784C371.838 187.787 371.977 188.154 371.757 188.355L357.824 201.041C357.698 201.155 357.507 201.155 357.381 201.04Z" stroke="#62BACE" stroke-width="1.08389"/>
    <circle cx="372.538" cy="186.973" r="3.4442" fill="#62BACE"/>
    <rect x="111.223" y="97.3898" width="22.3807" height="14.8177" rx="1.97296" transform="rotate(-24.3237 111.223 97.3898)" stroke="#62BACE" stroke-width="0.780963"/>
    <path d="M125.761 101.642L112.566 97.331C112.36 97.2636 112.346 96.9771 112.545 96.8899L131.123 88.7368C131.32 88.6506 131.52 88.8499 131.435 89.0469L126.052 101.511C126.003 101.623 125.877 101.68 125.761 101.642Z" stroke="#62BACE" stroke-width="0.780963"/>
    <circle cx="131.538" cy="87.9081" r="2.48161" transform="rotate(-24.3237 131.538 87.9081)" fill="#62BACE"/>
    <path d="M315.954 5.20166C316.397 5.20166 316.822 5.37771 317.135 5.69108C317.448 6.00446 317.625 6.42948 317.625 6.87266V11.8856C317.625 12.3288 317.448 12.7538 317.135 13.0672C316.822 13.3806 316.397 13.5566 315.954 13.5566C315.51 13.5566 315.085 13.3806 314.772 13.0672C314.459 12.7538 314.283 12.3288 314.283 11.8856V6.87266C314.283 6.42948 314.459 6.00446 314.772 5.69108C315.085 5.37771 315.51 5.20166 315.954 5.20166ZM315.954 30.2666C316.397 30.2666 316.822 30.4427 317.135 30.756C317.448 31.0694 317.625 31.4944 317.625 31.9376V36.9506C317.625 37.3938 317.448 37.8188 317.135 38.1322C316.822 38.4456 316.397 38.6216 315.954 38.6216C315.51 38.6216 315.085 38.4456 314.772 38.1322C314.459 37.8188 314.283 37.3938 314.283 36.9506V31.9376C314.283 31.4944 314.459 31.0694 314.772 30.756C315.085 30.4427 315.51 30.2666 315.954 30.2666ZM332.663 21.9116C332.663 22.3548 332.487 22.7798 332.174 23.0932C331.861 23.4066 331.436 23.5826 330.992 23.5826H325.979C325.536 23.5826 325.111 23.4066 324.798 23.0932C324.485 22.7798 324.308 22.3548 324.308 21.9116C324.308 21.4685 324.485 21.0434 324.798 20.7301C325.111 20.4167 325.536 20.2406 325.979 20.2406H330.992C331.436 20.2406 331.861 20.4167 332.174 20.7301C332.487 21.0434 332.663 21.4685 332.663 21.9116ZM307.599 21.9116C307.599 22.3548 307.422 22.7798 307.109 23.0932C306.796 23.4066 306.371 23.5826 305.928 23.5826H300.915C300.471 23.5826 300.046 23.4066 299.733 23.0932C299.42 22.7798 299.244 22.3548 299.244 21.9116C299.244 21.4685 299.42 21.0434 299.733 20.7301C300.046 20.4167 300.471 20.2406 300.915 20.2406H305.928C306.371 20.2406 306.796 20.4167 307.109 20.7301C307.422 21.0434 307.599 21.4685 307.599 21.9116ZM327.769 33.7273C327.456 34.0405 327.031 34.2165 326.588 34.2165C326.145 34.2165 325.72 34.0405 325.406 33.7273L321.862 30.1831C321.558 29.8679 321.389 29.4458 321.393 29.0077C321.397 28.5696 321.573 28.1505 321.883 27.8406C322.192 27.5308 322.611 27.3551 323.05 27.3513C323.488 27.3475 323.91 27.5159 324.225 27.8203L327.769 31.3628C327.924 31.518 328.048 31.7023 328.132 31.9051C328.216 32.108 328.259 32.3254 328.259 32.545C328.259 32.7646 328.216 32.9821 328.132 33.1849C328.048 33.3878 327.924 33.5721 327.769 33.7273ZM310.045 16.003C309.731 16.3162 309.307 16.4922 308.863 16.4922C308.42 16.4922 307.995 16.3162 307.682 16.003L304.14 12.4605C303.826 12.1471 303.65 11.7221 303.65 11.2788C303.649 10.8356 303.825 10.4104 304.139 10.0968C304.452 9.7833 304.877 9.60706 305.32 9.60691C305.764 9.60675 306.189 9.78269 306.502 10.096L310.045 13.6402C310.358 13.9536 310.534 14.3785 310.534 14.8216C310.534 15.2647 310.358 15.6896 310.045 16.003ZM304.14 33.7273C303.826 33.4139 303.65 32.9889 303.65 32.5459C303.65 32.1028 303.826 31.6778 304.14 31.3645L307.684 27.8203C307.838 27.6607 308.022 27.5334 308.226 27.4458C308.43 27.3582 308.649 27.3121 308.871 27.3102C309.093 27.3083 309.313 27.3506 309.518 27.4346C309.724 27.5186 309.91 27.6427 310.067 27.7996C310.224 27.9565 310.348 28.143 310.432 28.3484C310.516 28.5538 310.559 28.7738 310.557 28.9957C310.555 29.2175 310.509 29.4368 310.421 29.6407C310.333 29.8445 310.206 30.0289 310.047 30.1831L306.504 33.7273C306.349 33.8826 306.165 34.0059 305.962 34.09C305.759 34.1741 305.541 34.2173 305.322 34.2173C305.102 34.2173 304.885 34.1741 304.682 34.09C304.479 34.0059 304.295 33.8826 304.14 33.7273ZM321.862 16.003C321.549 15.6896 321.373 15.2647 321.373 14.8216C321.373 14.3785 321.549 13.9536 321.862 13.6402L325.405 10.096C325.718 9.78246 326.143 9.60623 326.586 9.60607C327.03 9.60591 327.455 9.78185 327.768 10.0952C328.082 10.4085 328.258 10.8335 328.258 11.2768C328.258 11.7201 328.082 12.1453 327.769 12.4588L324.225 16.003C323.912 16.3162 323.487 16.4922 323.044 16.4922C322.6 16.4922 322.176 16.3162 321.862 16.003Z" fill="#7BCAF4"/>
    <path d="M647.895 249.15C648.117 249.15 648.329 249.238 648.486 249.395C648.643 249.551 648.731 249.764 648.731 249.985V252.492C648.731 252.713 648.643 252.926 648.486 253.083C648.329 253.239 648.117 253.327 647.895 253.327C647.674 253.327 647.461 253.239 647.304 253.083C647.148 252.926 647.06 252.713 647.06 252.492V249.985C647.06 249.764 647.148 249.551 647.304 249.395C647.461 249.238 647.674 249.15 647.895 249.15ZM647.895 261.682C648.117 261.682 648.329 261.77 648.486 261.927C648.643 262.084 648.731 262.296 648.731 262.518V265.024C648.731 265.246 648.643 265.458 648.486 265.615C648.329 265.772 648.117 265.86 647.895 265.86C647.674 265.86 647.461 265.772 647.304 265.615C647.148 265.458 647.06 265.246 647.06 265.024V262.518C647.06 262.296 647.148 262.084 647.304 261.927C647.461 261.77 647.674 261.682 647.895 261.682ZM656.25 257.505C656.25 257.726 656.162 257.939 656.005 258.096C655.849 258.252 655.636 258.34 655.415 258.34H652.908C652.687 258.34 652.474 258.252 652.317 258.096C652.161 257.939 652.073 257.726 652.073 257.505C652.073 257.283 652.161 257.071 652.317 256.914C652.474 256.757 652.687 256.669 652.908 256.669H655.415C655.636 256.669 655.849 256.757 656.005 256.914C656.162 257.071 656.25 257.283 656.25 257.505ZM643.718 257.505C643.718 257.726 643.63 257.939 643.473 258.096C643.316 258.252 643.104 258.34 642.882 258.34H640.376C640.154 258.34 639.942 258.252 639.785 258.096C639.628 257.939 639.54 257.726 639.54 257.505C639.54 257.283 639.628 257.071 639.785 256.914C639.942 256.757 640.154 256.669 640.376 256.669H642.882C643.104 256.669 643.316 256.757 643.473 256.914C643.63 257.071 643.718 257.283 643.718 257.505ZM653.803 263.413C653.646 263.569 653.434 263.657 653.212 263.657C652.991 263.657 652.778 263.569 652.622 263.413L650.849 261.641C650.697 261.483 650.613 261.272 650.615 261.053C650.617 260.834 650.705 260.624 650.86 260.469C651.015 260.314 651.224 260.227 651.443 260.225C651.662 260.223 651.873 260.307 652.031 260.459L653.803 262.23C653.881 262.308 653.942 262.4 653.984 262.502C654.026 262.603 654.048 262.712 654.048 262.822C654.048 262.931 654.026 263.04 653.984 263.142C653.942 263.243 653.881 263.335 653.803 263.413ZM644.941 254.551C644.784 254.707 644.572 254.795 644.35 254.795C644.129 254.795 643.916 254.707 643.759 254.551L641.988 252.779C641.831 252.623 641.743 252.41 641.743 252.188C641.743 251.967 641.831 251.754 641.988 251.597C642.144 251.441 642.357 251.353 642.579 251.353C642.8 251.352 643.013 251.44 643.17 251.597L644.941 253.369C645.097 253.526 645.185 253.738 645.185 253.96C645.185 254.181 645.097 254.394 644.941 254.551ZM641.988 263.413C641.832 263.256 641.744 263.044 641.744 262.822C641.744 262.6 641.832 262.388 641.988 262.231L643.76 260.459C643.837 260.379 643.93 260.316 644.031 260.272C644.133 260.228 644.243 260.205 644.354 260.204C644.465 260.203 644.575 260.224 644.678 260.266C644.78 260.308 644.874 260.37 644.952 260.449C645.03 260.527 645.093 260.621 645.135 260.723C645.177 260.826 645.198 260.936 645.197 261.047C645.196 261.158 645.173 261.267 645.129 261.369C645.085 261.471 645.021 261.564 644.942 261.641L643.17 263.413C643.093 263.49 643.001 263.552 642.899 263.594C642.798 263.636 642.689 263.658 642.579 263.658C642.469 263.658 642.361 263.636 642.259 263.594C642.158 263.552 642.066 263.49 641.988 263.413ZM650.849 254.551C650.693 254.394 650.605 254.181 650.605 253.96C650.605 253.738 650.693 253.526 650.849 253.369L652.621 251.597C652.777 251.44 652.99 251.352 653.212 251.352C653.433 251.352 653.646 251.44 653.803 251.597C653.959 251.753 654.047 251.966 654.048 252.187C654.048 252.409 653.96 252.622 653.803 252.778L652.031 254.551C651.874 254.707 651.662 254.795 651.44 254.795C651.219 254.795 651.006 254.707 650.849 254.551Z" fill="#7BCAF4"/>
    <path d="M582.007 46.9764C581.682 46.6226 581.267 46.3634 580.806 46.2263C580.345 46.0892 579.856 46.0794 579.39 46.1978L547.249 54.3524C546.729 54.4878 546.263 54.778 545.912 55.1847C545.561 55.5913 545.342 56.0951 545.284 56.6292C545.226 57.1632 545.332 57.7023 545.587 58.1748C545.843 58.6473 546.236 59.0309 546.715 59.2747L552.978 62.4512L554.939 74.7135C554.942 74.7382 554.962 74.7565 554.969 74.78C554.993 74.8789 555.035 74.9727 555.093 75.0566C555.18 75.1857 555.302 75.288 555.444 75.352C555.46 75.3611 555.47 75.3781 555.487 75.3838L555.497 75.3852L555.502 75.3876C555.629 75.4338 555.767 75.4453 555.901 75.4211C555.915 75.4195 555.928 75.4214 555.944 75.4183C556.073 75.392 556.194 75.3361 556.297 75.2551C556.309 75.2446 556.326 75.2452 556.338 75.2364L562.231 70.2776L568.92 77.085C569.326 77.5021 569.859 77.7704 570.436 77.8488C571.684 78.0186 572.879 77.291 573.302 76.1067L582.555 49.6228C582.712 49.1732 582.744 48.6894 582.647 48.2231C582.551 47.7567 582.33 47.3252 582.007 46.9747L582.007 46.9764ZM558.095 65.4248L556.098 71.1059L554.718 62.4696L568.039 57.683L558.385 65.0261C558.252 65.1276 558.151 65.2663 558.095 65.4248ZM571.682 75.5382C571.629 75.688 571.539 75.8218 571.419 75.9265C571.3 76.0313 571.155 76.1036 571 76.1364C570.847 76.1724 570.688 76.1681 570.538 76.124C570.388 76.0799 570.252 75.9975 570.144 75.8849L562.898 68.5098C562.746 68.3561 562.542 68.2651 562.326 68.255C562.111 68.245 561.899 68.3165 561.734 68.4555L557.634 71.9002L559.627 66.2359L573.515 55.6725C573.678 55.5483 573.791 55.3701 573.834 55.17C573.877 54.9699 573.846 54.761 573.749 54.5811C573.651 54.4012 573.493 54.2621 573.301 54.189C573.11 54.1158 572.899 54.1134 572.706 54.1821L553.835 60.9639L547.49 57.7417C547.321 57.6593 547.182 57.5265 547.093 57.3615C547.003 57.1966 546.967 57.0079 546.99 56.8215C547.007 56.6328 547.082 56.454 547.205 56.31C547.329 56.166 547.494 56.0639 547.677 56.0179L579.813 47.8626C579.979 47.8175 580.153 47.8194 580.317 47.868C580.481 47.9167 580.628 48.0101 580.742 48.1379C580.856 48.2591 580.935 48.4095 580.968 48.5725C581.002 48.7355 580.989 48.9046 580.932 49.0609L571.682 75.5399L571.682 75.5382Z" fill="#62BACE"/>
    <path d="M554.257 76.1612C540.121 86.8788 504.675 103.467 475.979 84.077C447.282 64.6872 409.73 95.9166 394.541 113.955" stroke="#62BACE" stroke-width="1.08389" stroke-linecap="round" stroke-dasharray="5.42 5.42"/>
</svg>